<?xml version="1.0" standalone="no"?>
<!DOCTYPE svg PUBLIC "-//W3C//DTD SVG 1.1//EN" "http://www.w3.org/Graphics/SVG/1.1/DTD/svg11.dtd" >
<svg xmlns="http://www.w3.org/2000/svg" xmlns:xlink="http://www.w3.org/1999/xlink" version="1.1">
<metadata></metadata>
<defs>
<font id="book_antiquaregular" horiz-adv-x="1024" >
<font-face units-per-em="2048" ascent="1638" descent="-410" />
<missing-glyph horiz-adv-x="512" />
<glyph horiz-adv-x="0" />
<glyph horiz-adv-x="682" />
<glyph unicode=" "  horiz-adv-x="512" />
<glyph unicode="&#x09;" horiz-adv-x="512" />
<glyph unicode="&#xa0;" horiz-adv-x="512" />
<glyph unicode="!" horiz-adv-x="569" d="M166 90q0 49 34 83t83 34q48 0 82 -34t34 -83q0 -48 -34 -82.5t-82 -34.5q-49 0 -83 34.5t-34 82.5zM176 1264l1 64q78 37 154 81h72l-2 -138q-2 -29 -11 -108q-40 -345 -64 -744l-56 -52l-20 9q-27 387 -46 549q-28 245 -28 339z" />
<glyph unicode="&#x22;" horiz-adv-x="760" d="M150 1345q0 44 19.5 67.5t47.5 23.5q29 0 48 -23t19 -69q0 -23 -2 -64l-30 -448q-3 -43 -36 -43q-31 0 -34 43l-29 448q-3 41 -3 65zM476 1345q0 44 19.5 67.5t47.5 23.5q29 0 48.5 -23t19.5 -69q0 -23 -3 -64l-29 -448q-3 -43 -36 -43q-32 0 -34 43l-30 448q-3 41 -3 65 z" />
<glyph unicode="#" horiz-adv-x="1241" d="M104 445v138h230l43 273h-216v139h235l63 414h137l-62 -414h275l60 414h140l-61 -414h191v-139h-211l-39 -273h194v-138h-216l-64 -445h-141l65 445h-276l-67 -445h-139l68 445h-209zM473 583h274l42 273h-276z" />
<glyph unicode="$" d="M57 87q27 136 32 304h63l4 -186q61 -62 128.5 -91.5t174.5 -37.5v568q-185 22 -253 55.5t-106 102.5t-38 172q0 173 100 285t297 143l-5 136h88q-6 -77 -7 -131q112 -7 188 -26t150 -57l6 -15q-18 -94 -30 -250h-59l-15 177q-54 50 -99.5 68t-140.5 28v-530 q218 -30 285 -62t108 -102t41 -171q0 -113 -52 -213t-139 -159.5t-243 -87.5q-1 -132 4 -210h-89q6 81 9 205q-135 5 -213.5 22t-188.5 63zM219 1047q0 -116 66 -173q48 -43 174 -65v520q-85 -12 -133.5 -46t-77.5 -94.5t-29 -141.5zM535 81q101 20 153 57.5t83.5 104 t31.5 147.5q0 71 -25 119.5t-72.5 75.5t-170.5 52v-556z" />
<glyph unicode="%" horiz-adv-x="1720" d="M221 1117q0 149 91 247t216 98q122 0 203.5 -85.5t81.5 -225.5q0 -153 -89 -249.5t-221 -96.5q-121 0 -201.5 86t-80.5 226zM364 1111q0 -140 40.5 -198.5t106.5 -58.5q71 0 115 66.5t44 226.5q0 143 -39 201.5t-106 58.5q-71 0 -109 -59q-52 -81 -52 -237zM402 -68 q34 56 66 118l683 1319q32 60 47 108q42 -6 64 -6l38 1q-38 -60 -63 -107l-698 -1336q-27 -51 -45 -97q-30 3 -45 3t-47 -3zM906 312q0 149 91 247t216 98q122 0 203.5 -85.5t81.5 -225.5q0 -153 -89 -249.5t-221 -96.5q-121 0 -201.5 86t-80.5 226zM1049 306 q0 -140 40.5 -198.5t106.5 -58.5q71 0 115 66.5t44 226.5q0 143 -39 201.5t-106 58.5q-71 0 -109 -59q-52 -81 -52 -237z" />
<glyph unicode="&#x26;" horiz-adv-x="1593" d="M100 377q0 146 86 259q59 77 228 181q-58 152 -58 257q0 81 24 141q16 41 62 81q118 101 149 117q45 23 105 23q85 0 133.5 -52t48.5 -140q0 -205 -293 -409q164 -303 414 -525q57 69 78.5 127t21.5 122q0 70 -24 116q-11 21 -32 27q-36 10 -166 9l-5 15l61 91 q103 -6 160 -6l126 3q186 5 309 6q-16 -85 -23 -143q-107 17 -288 23q12 -52 12 -88q0 -81 -38.5 -166t-131.5 -183q102 -75 194 -107.5t167 -32.5q38 0 115 48l15 -48q-126 -90 -177 -137q-40 -13 -82 -13q-153 0 -358 166q-115 -94 -209 -130t-206 -36q-184 0 -301 116 t-117 288zM274 452q0 -140 97 -250t242 -110q125 0 259 99q-237 218 -424 552q-96 -67 -135 -136.5t-39 -154.5zM499 1152q0 -102 52 -248q184 148 184 291q0 63 -31 100.5t-78 37.5q-56 0 -91.5 -44.5t-35.5 -136.5z" />
<glyph unicode="'" horiz-adv-x="426" d="M145 1345q0 44 19.5 67.5t47.5 23.5q29 0 48 -23t19 -69q0 -23 -2 -64l-30 -448q-3 -43 -36 -43q-31 0 -34 43l-29 448q-3 41 -3 65z" />
<glyph unicode="(" horiz-adv-x="682" d="M152 475q0 231 63 426.5t159 331t227 257.5l43 -55q-116 -138 -182.5 -272.5t-101 -294.5t-34.5 -369q0 -220 32 -389.5t91.5 -299.5t194.5 -312l-50 -49q-168 167 -256.5 316t-137 329.5t-48.5 380.5z" />
<glyph unicode=")" horiz-adv-x="682" d="M39 -496q116 137 182 272t101 295t35 368q0 221 -32.5 391t-92 300t-193.5 310l50 50q167 -166 256 -315.5t137.5 -330t48.5 -380.5q0 -231 -63 -426t-159 -330.5t-227 -258.5z" />
<glyph unicode="*" horiz-adv-x="797" d="M38 1102q21 67 37 137l33 10q135 -83 252 -147l-28 304q80 0 143 3l17 -30q-40 -133 -69 -282l259 128l16 -5q28 -62 60 -120l-17 -25q-108 -10 -301 -35l203 -201l6 -17l-99 -98l-36 -2q-44 102 -122 274l-148 -250l-37 -6q-43 55 -93 105l4 14q99 73 227 179l-303 50z " />
<glyph unicode="+" horiz-adv-x="1241" d="M117 635v139h434v434h139v-434h434v-139h-434v-434h-139v434h-434z" />
<glyph unicode="," horiz-adv-x="512" d="M14 -266q87 134 127.5 243t54.5 236q116 28 204 63l28 -30q-57 -139 -123.5 -250.5t-176.5 -249.5l-84 -43z" />
<glyph unicode="-" horiz-adv-x="682" d="M43 413q30 76 51 145q146 -7 243 -7q80 0 294 7l8 -15q-33 -76 -49 -144q-137 9 -252 9q-129 0 -282 -9z" />
<glyph unicode="." horiz-adv-x="512" d="M139 90q0 49 34 83t83 34q48 0 82 -34t34 -83q0 -48 -34 -82.5t-82 -34.5q-49 0 -83 34.5t-34 82.5z" />
<glyph unicode="/" horiz-adv-x="1241" d="M73 -438q38 78 66 147l683 1646q31 75 47 135q65 -8 100 -8l58 1q-38 -75 -62 -133l-699 -1667q-27 -63 -45 -121l-73 4q-25 0 -75 -4z" />
<glyph unicode="0" d="M66 703q0 385 128.5 559t343.5 174q132 0 225 -65.5t144.5 -199t51.5 -388.5q0 -444 -128 -627t-341 -183q-147 0 -245 86.5t-144 244.5q-35 121 -35 399zM240 730q0 -409 85 -561q68 -124 196 -124q122 0 185 114q79 143 79 525q0 406 -84 554q-71 126 -200 126 q-121 0 -191 -124.5t-70 -509.5z" />
<glyph unicode="1" d="M66 1214q314 94 536 211l29 -13l-4 -113l-10 -577l-7 -394q0 -142 12 -188t38.5 -61.5t127.5 -17.5l91 -3v-65q-251 7 -356 7q-121 0 -353 -7v65l78 3q135 4 161.5 38t25.5 275l7 555q0 279 -6 307q-3 17 -18 17q-10 0 -46 -16q-170 -75 -233 -111q-44 -26 -51 -26 q-13 0 -15 17z" />
<glyph unicode="2" d="M41 -7v56l346 360q197 204 263.5 331.5t66.5 236.5q0 135 -77.5 216t-205.5 81q-84 0 -152 -30q-49 -22 -70 -55t-62 -186h-61q31 195 34 282q75 79 162 115t197 36q194 0 308.5 -109.5t114.5 -287.5q0 -154 -103.5 -302t-347.5 -373l-193 -198h365q232 0 348 13l10 -9 q-9 -57 -9 -81q0 -19 9 -90l-10 -6q-198 7 -440 7q-254 0 -493 -7z" />
<glyph unicode="3" d="M28 324l55 23q63 -145 101.5 -190t100.5 -71.5t149 -26.5q150 0 234 92.5t84 259.5q0 141 -71 218.5t-188 77.5q-90 0 -190 -51l-14 10l19 114q53 -6 79 -6q122 0 199.5 76t77.5 199q0 112 -67.5 179.5t-176.5 67.5q-72 0 -138.5 -31.5t-98.5 -71.5q-13 -17 -34 -81 l-23 -70h-62l54 245q64 75 151 112t197 37q168 0 266 -87t98 -215q0 -86 -42 -160.5t-171 -181.5q64 0 132 -25q94 -35 142.5 -105.5t48.5 -169.5q0 -201 -173 -360t-413 -159q-62 0 -123 13t-122 39q-20 121 -81 299z" />
<glyph unicode="4" d="M3 419q162 284 263 450t318 501q53 15 138 55l28 -12q-7 -117 -8 -405v-513q130 0 224 12q-6 -48 -6 -66q0 -13 6 -82q-107 10 -224 10q0 -244 16 -274.5t105 -36.5l103 -6v-59q-189 7 -324 7q-53 0 -325 -7v59l108 6q89 5 107 17t24 44q12 53 12 198v52q-387 0 -547 -10 zM136 495q115 -4 206 -4q85 0 226 4v714q-219 -318 -432 -714z" />
<glyph unicode="5" d="M24 300l51 29l25 -45q68 -122 90 -143q29 -29 88.5 -49t137.5 -20q167 0 260.5 97.5t93.5 280.5q0 160 -86.5 251.5t-228.5 91.5q-82 0 -147 -32t-115 -100l-43 14q14 174 14 444q0 169 -14 294l17 10q157 -14 322 -14q200 0 384 14l12 -10q-9 -50 -9 -78q0 -26 9 -81 l-12 -11q-114 6 -219 6q-210 0 -401 -6q-9 -76 -16 -416q74 58 141 81.5t153 23.5q186 0 299.5 -111t113.5 -289q0 -223 -178.5 -391t-422.5 -168q-62 0 -107.5 11.5t-106.5 44.5q-17 58 -30 92z" />
<glyph unicode="6" d="M68 526q0 221 83.5 401t252.5 317t388 197l73 -33v-17q-178 -47 -307 -146t-201 -231t-89 -315l113 83q56 45 102 60.5t113 15.5q170 0 265.5 -101t95.5 -285q0 -208 -136 -353.5t-327 -145.5q-188 0 -307 143t-119 410zM256 447q0 -199 83 -309q70 -93 185 -93 q112 0 180 86q79 100 79 275q0 163 -73 248t-192 85q-77 0 -143.5 -38t-96.5 -95q-22 -42 -22 -159z" />
<glyph unicode="7" d="M88 1404l18 18q148 -11 371 -11q360 0 543 14v-60q-504 -903 -680 -1369q-66 4 -95 4q-43 0 -98 -7l-17 26q138 219 467 775q154 259 253 447l-11 9l-63 1q-108 0 -420 -8q-129 -4 -146.5 -14t-26.5 -36.5t-22 -156.5l-6 -57h-63q7 132 7 242q0 98 -11 183z" />
<glyph unicode="8" d="M51 341q0 245 277 383v8q-117 68 -165 131q-63 84 -63 197q0 164 115 270t305 106q172 0 270.5 -82t98.5 -207q0 -95 -52.5 -174.5t-196.5 -167.5v-9q185 -87 244.5 -165.5t59.5 -196.5q0 -188 -142 -324.5t-346 -136.5q-180 0 -292.5 105t-112.5 263zM194 352 q0 -140 81.5 -223.5t210.5 -83.5q134 0 217 82t83 213q0 120 -74.5 187t-302.5 168q-108 -64 -152 -128q-63 -92 -63 -215zM258 1142q0 -95 56.5 -160t249.5 -152q96 56 138.5 125t42.5 159q0 117 -65.5 183.5t-176.5 66.5t-178 -61.5t-67 -160.5z" />
<glyph unicode="9" d="M59 950q0 217 129 351.5t330 134.5q207 0 326.5 -142.5t119.5 -420.5q0 -197 -60.5 -351t-184.5 -281t-279 -202q-98 -47 -232 -71l-68 35v20q193 43 322 134.5t205.5 224.5t99.5 330l-103 -82q-64 -55 -114 -74t-117 -19q-167 0 -270.5 109.5t-103.5 303.5zM233 1017 q0 -174 77 -268t198 -94q122 0 195 81t73 245q0 179 -79.5 281t-195.5 102q-73 0 -133.5 -39.5t-97.5 -121t-37 -186.5z" />
<glyph unicode=":" horiz-adv-x="512" d="M139 90q0 49 34 83t83 34q48 0 82 -34t34 -83q0 -48 -34 -82.5t-82 -34.5q-49 0 -83 34.5t-34 82.5zM139 823q0 49 34 83t83 34q48 0 82 -34t34 -83q0 -48 -34 -82t-82 -34q-49 0 -83 34t-34 82z" />
<glyph unicode=";" horiz-adv-x="512" d="M14 -274q98 168 133.5 266t48.5 221q116 28 204 63l28 -30q-56 -138 -123.5 -250.5t-175.5 -249.5l-85 -43zM177 823q0 49 34 83t82 34q49 0 83 -34t34 -83q0 -48 -34 -82t-83 -34q-48 0 -82 34t-34 82z" />
<glyph unicode="&#x3c;" horiz-adv-x="1241" d="M117 642v125l1007 458v-152l-805 -368l805 -369v-152z" />
<glyph unicode="=" horiz-adv-x="1241" d="M117 464v139h1007v-139h-1007zM117 806v139h1007v-139h-1007z" />
<glyph unicode="&#x3e;" horiz-adv-x="1241" d="M117 184v152l805 369l-805 368v152l1007 -458v-125z" />
<glyph unicode="?" horiz-adv-x="909" d="M95 1124l78 238q61 37 125.5 55.5t132.5 18.5q176 0 279 -93t103 -238q0 -59 -18.5 -113t-55 -101t-156.5 -158q-101 -93 -123 -120q-37 -44 -52 -82q-11 -26 -11 -54q0 -48 46 -103l-43 -32q-51 38 -71 76t-20 86t23 96t112 151q118 135 149 198t31 121q0 95 -71 160.5 t-181 65.5q-31 0 -63.5 -8.5t-67.5 -25.5q-54 -76 -89 -157l-51 7zM291 90q0 48 34 82.5t82 34.5q49 0 83 -34.5t34 -82.5t-34 -82.5t-83 -34.5q-48 0 -82 34.5t-34 82.5z" />
<glyph unicode="@" horiz-adv-x="1530" d="M69 695q0 201 97.5 373.5t264.5 270t364 97.5q250 0 457 -158.5t207 -427.5q0 -155 -64.5 -280.5t-183.5 -205.5t-211 -80q-60 0 -104 41t-55 123q-62 -85 -117 -117.5t-117 -32.5q-111 0 -191.5 84t-80.5 211q0 120 61 227.5t166 172.5t208 65q70 0 115 -35.5t65 -106.5 l33 124h141l-148 -554q-12 -46 -12 -74q0 -27 16 -44.5t42 -17.5q67 0 151.5 64t141 185t56.5 249q0 202 -165 352.5t-406 150.5q-180 0 -326.5 -84t-231.5 -235t-85 -334q0 -180 84.5 -325t239.5 -230.5t342 -85.5q109 0 201.5 35t175 103.5t152.5 180.5h102 q-64 -116 -122 -176q-103 -107 -234 -167t-283 -60q-207 0 -381 96.5t-269.5 261.5t-95.5 364zM475 547q0 -83 45 -135.5t104 -52.5q57 0 116.5 49.5t112 187t52.5 252.5q0 72 -33 110.5t-83 38.5q-65 0 -135 -52.5t-124.5 -172t-54.5 -225.5z" />
<glyph unicode="A" horiz-adv-x="1593" d="M39 -7v63l30 1q70 2 90.5 14.5t43.5 61.5q71 144 145 311l275 623q110 248 150 360h68l506 -1177q51 -120 68 -144.5t39 -35t99 -14.5v-63q-130 7 -248 7q-110 0 -293 -7v63l99 6q53 4 63 11q15 11 15 28q0 18 -30 94l-110 278h-578l-68 -161q-67 -160 -67 -196 q0 -23 12.5 -33t63.5 -16l96 -11v-63q-96 7 -216 7q-144 0 -253 -7zM508 555h504l-252 602z" />
<glyph unicode="B" horiz-adv-x="1251" d="M57 1353v62h83l92 -3q72 -3 113 -3q63 0 249 5l146 3q172 0 257 -60q107 -76 107 -215q0 -114 -75.5 -200t-258.5 -144q215 -14 310 -99.5t95 -236.5q0 -191 -159.5 -329.5t-405.5 -138.5l-79 2q-100 4 -169 4q-50 0 -123 -4l-83 -3v45q62 30 73.5 46t13.5 53 q7 119 7 271v623q0 250 -18 283q-22 39 -107 39h-68zM438 94q93 -14 154 -14q177 0 274.5 94.5t97.5 256.5q0 108 -43 178.5t-120.5 103t-247.5 32.5q-51 0 -115 -3v-355l1 -126q3 -68 3 -104q0 -27 -4 -63zM438 826q50 -3 92 -3q199 0 285 70.5t86 203.5q0 115 -72 176.5 t-230 61.5q-70 0 -152 -13q-9 -122 -9 -369v-127z" />
<glyph unicode="C" horiz-adv-x="1452" d="M82 709q0 211 101 377.5t285.5 258t453.5 91.5q141 0 330 -46q94 -22 153 -33q-45 -107 -52 -302h-67l-8 178q-89 59 -186.5 88t-203.5 29q-270 0 -432.5 -164t-162.5 -439q0 -193 82.5 -344t234.5 -239t321 -88q134 0 265 31q98 23 197 96l21 -20q-21 -46 -39 -93 q-117 -58 -235.5 -87.5t-238.5 -29.5q-246 0 -432.5 95t-286.5 262.5t-100 378.5z" />
<glyph unicode="D" horiz-adv-x="1585" d="M45 1353v63q165 -5 222 -5l269 2l219 4h18q124 0 253 -26q139 -28 252 -112.5t172 -212t59 -294.5q0 -338 -227.5 -559t-594.5 -221l-123 3q-181 7 -229 7q-81 0 -206 -12v48l93 55q16 155 16 542v290q0 178 -12 307q-7 75 -18.5 87t-82.5 22zM426 437q0 -181 12 -339 q135 -20 238 -20q280 0 435 144q187 175 187 510q0 292 -155.5 445t-455.5 153q-105 0 -249 -21q-12 -96 -12 -218v-654z" />
<glyph unicode="E" horiz-adv-x="1251" d="M53 1353v62h108l106 -3q89 -3 135 -3l384 5l182 1h19q84 0 169 -8q-38 -118 -42 -307h-68q0 110 -11 183q-118 44 -290 44q-137 0 -287 -12v-47q0 -70 -2 -141l-2 -154v-203q99 -6 175 -6q238 0 269.5 16.5t31.5 102.5v65h68q-7 -151 -7 -241q0 -95 7 -224h-68v58 q0 96 -37.5 117.5t-264.5 21.5q-84 0 -174 -8v-245l1 -141q0 -132 3 -193q146 -11 313 -11q112 0 188 10q49 6 104 26q25 88 51 220h67q-27 -219 -27 -292l2 -45q-115 -11 -226 -11l-157 3q-260 7 -382 7q-117 0 -311 -7v63h31q87 0 109.5 17t30 80t7.5 278v549 q0 135 -6.5 221t-14 102.5t-21.5 25.5t-86 16z" />
<glyph unicode="F" horiz-adv-x="1139" d="M37 -7v62h80q86 0 105.5 33t19.5 241v755q0 203 -21.5 236t-111.5 33h-72v63q166 -7 299 -7l575 11q90 0 170 -9q-32 -107 -35 -303h-64q-6 104 -24 186q-137 36 -277 36q-122 0 -239 -13q-12 -130 -12 -236v-318q60 -3 118 -3q150 0 263 8q38 2 51.5 16.5t22.5 77.5 l10 76h63q-9 -183 -9 -235l1 -236h-65v77q0 92 -35 112t-268 20q-64 0 -152 -3v-344q0 -205 22 -239.5t112 -34.5h71v-62q-190 7 -303 7q-114 0 -295 -7z" />
<glyph unicode="G" horiz-adv-x="1563" d="M25 696q0 216 103 384.5t287 262t466 93.5q115 0 212 -15t253 -60l85 -23q-27 -106 -43 -296h-62v66q0 98 -16 115q-30 32 -159 79.5t-295 47.5q-294 0 -450 -158q-170 -172 -170 -455q0 -272 153 -458q180 -220 491 -220q162 0 351 71q6 84 6 179q0 123 -4 141.5 t-14.5 24t-104.5 13.5l-118 10v64q229 -10 340 -10q96 0 165 10v-50l-70 -46q-15 -84 -15 -171q0 -92 15 -207q-133 -52 -300.5 -83.5t-320.5 -31.5q-236 0 -414.5 92.5t-274.5 257t-96 373.5z" />
<glyph unicode="H" horiz-adv-x="1704" d="M45 -7v63h62q105 0 124 35.5t19 325.5v603q0 262 -19.5 297.5t-111.5 35.5h-74v63q165 -7 307 -7q143 0 279 7v-63h-43q-93 0 -115 -15t-27 -49q-8 -55 -8 -267v-228q178 -8 453 -8q233 0 379 8v195q0 171 -12 287q-4 41 -27 59t-94 18h-72v63q153 -7 290 -7q148 0 308 7 v-63h-76q-77 0 -98.5 -17t-26 -62.5t-4.5 -286.5v-553q0 -307 17.5 -342.5t109.5 -35.5h78v-63q-138 7 -285 7q-168 0 -313 -7v63h69q76 0 98 17.5t27 65.5q11 103 11 300v260q-141 8 -360 8q-312 0 -472 -8v-279q0 -72 5 -169q6 -136 10 -150.5t29 -29.5t81 -15h68v-63 q-130 7 -251 7q-117 0 -335 -7z" />
<glyph unicode="I" horiz-adv-x="690" d="M61 -7v63h63q93 0 111.5 45t18.5 431v339q0 400 -16 441t-96 41h-81v63q166 -7 328 -7q135 0 245 7v-63h-77q-71 0 -89 -17t-21 -86q-5 -107 -5 -381v-345q0 -389 17 -428.5t109 -39.5h66v-63q-123 7 -268 7q-169 0 -305 -7z" />
<glyph unicode="J" horiz-adv-x="682" d="M-23 -239l21 11q54 -34 110 -34q80 0 112 54.5t32 291.5v862q0 330 -19 368.5t-119 38.5h-67v63q108 -7 274 -7q184 0 312 7v-63l-66 -4q-81 -7 -97.5 -18t-22.5 -37.5t-6 -170.5v-861q0 -214 -28 -307q-43 -148 -159.5 -252t-222.5 -104q-19 0 -54 5q3 44 3 72z" />
<glyph unicode="K" horiz-adv-x="1487" d="M57 -7v63h81q80 0 96 29.5t16 254.5v669q0 275 -16 309.5t-96 34.5h-81v63q183 -7 265 -7q59 0 308 7v-63l-79 -3q-68 -3 -86 -18.5t-22.5 -61.5t-4.5 -265v-270h14q82 67 141 122.5t194 194.5l284 294v70q110 -7 182 -7q75 0 166 7v-63h-54q-72 0 -122 -27.5 t-231 -193.5l-382 -351l682 -635l62 -59q19 -19 38.5 -25t64.5 -6v-63q-82 7 -144 7q-65 0 -142 -7l-689 654q-35 33 -43 33q-21 0 -21 -39v-305q0 -223 9 -244q15 -36 108 -36h75v-63q-163 7 -289 7q-132 0 -284 -7z" />
<glyph unicode="L" horiz-adv-x="1251" d="M51 1353v63q238 -7 316 -7q104 0 282 7v-63h-124q-53 0 -67 -30.5t-14 -253.5v-637l3 -282l-3 -59q98 -5 191 -5q188 0 294 10q74 8 153 29l60 235h65q-25 -189 -39 -353q-90 -15 -246 -15l-476 8q-96 0 -299 -11v53q80 35 94.5 75t14.5 317v550q0 300 -14.5 334.5 t-81.5 34.5h-109z" />
<glyph unicode="M" horiz-adv-x="1937" d="M47 -7v63h65q66 0 88 19t27 69q13 140 13 302v566q0 205 -9 271q-4 34 -29.5 52t-101.5 18h-53v63q174 -7 219 -7q57 0 162 7q121 -269 279 -593l263 -541l243 501q128 263 292 633q125 -7 176 -7q59 0 213 7v-63h-65q-88 0 -107.5 -30.5t-19.5 -219.5v-731 q0 -244 20.5 -280t114.5 -36h57v-63q-139 7 -266 7q-140 0 -293 -7v63h66q79 0 95.5 34.5t16.5 296.5v813l-297 -618q-167 -348 -274 -608h-40q-37 89 -212 457l-358 741v-773q0 -270 21.5 -306.5t133.5 -36.5h37v-63q-139 7 -226 7q-63 0 -251 -7z" />
<glyph unicode="N" horiz-adv-x="1702" d="M45 -7v63h72q65 0 85 18t25 71q11 110 11 299v497q0 140 -3 277q-2 58 -15.5 79.5t-39.5 38.5t-73 17h-62v63q127 -7 194 -7q72 0 158 7q99 -121 186.5 -235.5t181.5 -230.5l342 -420q185 -226 267 -314v642q0 403 -14.5 440.5t-115.5 47.5l-75 7v63q161 -7 250 -7 q93 0 240 7v-63h-77q-93 0 -107 -62q-9 -41 -9 -438v-451q0 -182 16 -435q-136 21 -158 30.5t-42 31.5q-111 123 -233 273l-719 888v-691q0 -236 9 -329q7 -71 23.5 -86.5t95.5 -22.5l64 -5v-63q-109 7 -197 7q-61 0 -280 -7z" />
<glyph unicode="O" horiz-adv-x="1610" d="M47 705q0 329 212 530t565 201q346 0 542.5 -186.5t196.5 -495.5q0 -333 -228 -557t-575 -224q-217 0 -374 88t-248 257t-91 387zM250 787q0 -226 77.5 -393.5t207.5 -251t297 -83.5q155 0 271 71t182.5 212t66.5 343q0 212 -73.5 362.5t-201.5 226.5t-303 76 q-160 0 -276 -67t-182 -196.5t-66 -299.5z" />
<glyph unicode="P" horiz-adv-x="1237" d="M45 -7v63h90q63 0 81 15.5t23 63t11 290.5v534l-3 207q-2 129 -27.5 158t-124.5 29h-50v63q125 -5 317 -5q113 0 251 6q91 4 138 4q242 0 352 -88q109 -88 109 -238q0 -109 -63 -209.5t-178.5 -161.5t-246.5 -61q-60 0 -150 19l-20 76q88 -23 147 -23q138 0 219 83.5 t81 228.5q0 140 -86.5 218.5t-257.5 78.5q-97 0 -212 -37q-7 -144 -7 -307v-571q0 -301 18 -337t118 -36h69v-63q-177 7 -279 7q-90 0 -319 -7z" />
<glyph unicode="Q" horiz-adv-x="1610" d="M47 708q0 326 212 527t565 201q346 0 542.5 -186.5t196.5 -496.5q0 -238 -115.5 -417.5t-302.5 -275.5q-134 -69 -319 -86q115 -30 239 -81q259 -106 374 -106q39 0 118 20v-52q-112 -58 -166 -110q-87 11 -157 29.5t-213 71.5q-236 86 -317 86q-23 0 -48.5 -10 t-127.5 -67v66q171 115 245 153q-226 0 -386 89.5t-250 255.5t-90 389zM258 789q0 -225 77 -392t206 -250.5t295 -83.5q154 0 269 71t181 211t66 342q0 212 -73 362t-200 225.5t-301 75.5q-159 0 -274 -67t-180.5 -196t-65.5 -298z" />
<glyph unicode="R" horiz-adv-x="1368" d="M59 -7v63h75q86 0 102 37.5t16 394.5v481q0 310 -18.5 347t-120.5 37h-54v64q186 -8 284 -8q66 0 190 5q144 5 207 5q173 0 262.5 -36.5t136 -105.5t46.5 -165q0 -141 -101.5 -249t-294.5 -148q98 -141 243 -328l192 -249q51 -64 68 -73t35 -9h26v-63q-83 7 -145 7 q-57 0 -120 -7l-354 478q-99 132 -212 258l10 34q58 -5 86 -5q167 0 261.5 86t94.5 230q0 129 -80 201.5t-231 72.5q-105 0 -211 -39q-12 -159 -12 -340v-483q0 -353 17 -391.5t110 -38.5h78v-63q-166 7 -275 7q-86 0 -311 -7z" />
<glyph unicode="S" horiz-adv-x="1075" d="M27 993q0 195 141 319t390 124q100 0 200.5 -21.5t201.5 -65.5q-28 -104 -30 -276h-69v80q0 78 -21 106t-109.5 59.5t-186.5 31.5q-160 0 -251.5 -81t-91.5 -208q0 -80 37.5 -137.5t101 -83t269.5 -44.5q206 -20 278.5 -53t116 -106t43.5 -173q0 -201 -168 -346 t-448 -145q-96 0 -193.5 19.5t-196.5 57.5q17 114 17 288v20h68v-50q0 -97 10 -120t47 -49q55 -39 131 -59.5t164 -20.5q189 0 292 89t103 226q0 80 -35 135.5t-98 82.5t-233 41q-226 18 -307 54t-127 113.5t-46 192.5z" />
<glyph unicode="T" horiz-adv-x="1255" d="M34 1416q540 -7 635 -7l553 7q-19 -169 -22 -326h-62l-10 131q-6 68 -17 80.5t-49 15.5q-110 8 -250 8h-78q-11 -150 -11 -316v-570q0 -318 16 -350.5t114 -32.5h75v-63q-177 7 -300 7q-124 0 -298 -7v63h84q66 0 86 17.5t25 68.5q10 117 10 302v571q0 169 -7 310h-102 q-247 0 -272 -11.5t-33 -89.5l-14 -134h-63l2 119q0 72 -12 207z" />
<glyph unicode="U" horiz-adv-x="1593" d="M39 1353v63q205 -7 298 -7q98 0 288 7v-63h-73q-94 0 -113 -36t-19 -326v-392q0 -215 23.5 -299t121.5 -142t262 -58q169 0 285 62q80 43 117 133.5t37 343.5v377q0 262 -23.5 299.5t-129.5 37.5h-52v63q207 -7 263 -7q91 0 226 7v-63h-68q-79 0 -101.5 -42.5 t-22.5 -298.5v-375q0 -257 -25.5 -346.5t-93 -161.5t-180 -114t-264.5 -42q-157 0 -275 37.5t-177.5 92.5t-86 134.5t-26.5 270.5l2 190v305q0 282 -16.5 316t-105.5 34h-71z" />
<glyph unicode="V" horiz-adv-x="1479" d="M25 1353v63q157 -7 267 -7q116 0 278 7v-72h-99q-51 0 -66 -9.5t-15 -29.5q0 -13 5 -29l130 -343l270 -689l263 657q133 335 133 392q0 46 -55 48l-41 3l-86 9v63q133 -7 219 -7q90 0 226 7v-63h-40q-48 0 -69.5 -22.5t-77.5 -159.5l-337 -823q-95 -232 -135 -371h-103 q-45 134 -92 251l-358 895q-77 194 -90 212t-86 18h-41z" />
<glyph unicode="W" horiz-adv-x="2048" d="M21 1353v63q143 -7 247 -7q101 0 273 7v-63h-63q-68 0 -88.5 -12t-20.5 -39q0 -16 5 -37l69 -332l142 -636l232 572q59 147 214 560h63q59 -185 159 -468l241 -678l183 633q26 91 90 350q6 23 6 38q0 18 -15 27t-74 15l-91 7v63q141 -7 221 -7q86 0 213 7v-63h-52 q-34 0 -51 -16q-32 -33 -152 -420q-159 -516 -264 -940h-104q-18 67 -30 100q-44 129 -204 568l-164 450l-187 -453q-168 -406 -249 -665h-101l-53 246q-22 109 -51 232l-174 748q-25 110 -45 130t-83 20h-42z" />
<glyph unicode="X" horiz-adv-x="1366" d="M33 -7v63h45q41 0 67 24t219 293l240 333l-150 250q-142 238 -230 323q-49 46 -103 46q-19 0 -63 -5v63l294 47q49 -40 83.5 -84.5t121.5 -191.5l170 -288l374 549h208v-62h-39q-41 0 -63.5 -13.5t-135.5 -158.5q-214 -274 -298 -395l328 -528q100 -161 123.5 -181.5 t67.5 -20.5h42v-63q-116 7 -177 7t-124 -7l-375 631q-82 -106 -223 -324.5t-188 -306.5q-48 7 -94 7q-55 0 -120 -7z" />
<glyph unicode="Y" horiz-adv-x="1366" d="M14 1320v62q41 8 161 32l79 16q46 -17 74 -43q50 -47 153 -215q79 -129 262 -475q61 92 193 320l229 398h155v-25q-122 -137 -299 -413t-212 -370q-12 -33 -12 -169q0 -181 9 -287q6 -57 20.5 -68.5t102.5 -19.5l76 -8v-62q-174 7 -272 7l-322 -7v62h85q85 0 102 35 t17 316q0 82 -5 179q-129 237 -238 410t-184 253q-41 44 -71.5 58t-102.5 14z" />
<glyph unicode="Z" horiz-adv-x="1366" d="M45 -7v59q107 119 254 315l453 600q184 244 262 354q-145 6 -251 6q-180 0 -386 -14q-90 -7 -106 -22t-22 -90l-10 -118h-65q6 109 6 169q0 59 -6 165l124 1l783 -9q127 0 211 8v-61q-101 -114 -160 -189l-319 -421l-498 -660h435q271 0 355 7q48 5 69.5 29t31.5 116 l12 114h74q-20 -157 -20 -304v-55q-120 -3 -186 -3q-55 0 -240 5q-197 5 -368 5q-280 0 -433 -7z" />
<glyph unicode="[" horiz-adv-x="682" d="M186 -425q4 80 8 339l7 564q0 768 -15 999l12 13q105 -8 179 -8q114 0 178 6l24 1q21 0 25.5 -6t4.5 -42q0 -23 -7 -27q-5 -4 -63 -6q-116 -5 -134.5 -17t-25.5 -34t-12 -303t-5 -529q0 -255 5 -532t12 -298.5t28.5 -35t131.5 -15.5q55 -1 62.5 -5.5t7.5 -27.5v-23 q0 -24 -24 -24l-30 1q-89 5 -172 5q-88 0 -185 -8z" />
<glyph unicode="\" horiz-adv-x="1241" d="M73 1483h82q14 0 75 7q19 -67 47 -135l684 -1646q34 -81 66 -147l-78 4q-14 1 -71 -4q-20 63 -44 121l-699 1667q-28 68 -62 133z" />
<glyph unicode="]" horiz-adv-x="682" d="M73 -389q0 22 5.5 26t92.5 8q91 5 108.5 17t24 36t11.5 302.5t5 531.5q0 263 -5 533.5t-12 292t-28 35t-132 15.5q-57 1 -63.5 6.5t-6.5 49.5q0 25 24 25l30 -1q100 -6 171 -6q85 0 186 8l12 -13q-5 -112 -7 -178q-9 -473 -9 -725l11 -845q1 -74 5 -154l-12 -13 q-97 8 -173 8q-127 0 -184 -5l-24 -1q-21 0 -25.5 5.5t-4.5 41.5z" />
<glyph unicode="^" horiz-adv-x="1241" d="M104 666l459 831h114l457 -831h-120l-394 695l-396 -695h-120z" />
<glyph unicode="_" d="M-12 -154h1048v-102h-1048v102z" />
<glyph unicode="`" horiz-adv-x="682" d="M88 1313q0 26 18 43.5t49 17.5q19 0 35 -8.5t53 -44.5l295 -283h-67l-269 161q-76 45 -98 71q-16 19 -16 43z" />
<glyph unicode="a" d="M68 207q0 101 48.5 176.5t138 111.5t415.5 94q-2 127 -56 190q-68 79 -194 79q-48 0 -90 -12t-78 -36q-29 -71 -53 -136l-56 15l1 67l-1 69l109 62q74 42 129.5 58t118.5 16q138 0 222.5 -62t101.5 -158q12 -72 15 -357q2 -269 12 -297t50 -28h78v-66q-114 7 -159 7 q-56 0 -150 -7l1 89q0 43 -1 87l-207 -158q-28 -21 -55 -29.5t-75 -8.5q-129 0 -197 63.5t-68 170.5zM242 255q0 -74 43 -118.5t111 -44.5q75 0 143.5 42t130.5 125l-2 222l2 49q-278 -60 -353 -112.5t-75 -162.5z" />
<glyph unicode="b" horiz-adv-x="1133" d="M14 1358v56q87 9 180 29q64 13 136 41q11 5 19 5q21 0 21 -38l-5 -50q-7 -57 -8 -85q-3 -129 -3 -352v-212l122 123q39 38 102.5 61.5t135.5 23.5q161 0 265 -111t104 -295q0 -101 -36.5 -196.5t-88.5 -154.5q-24 -28 -133.5 -107.5t-141.5 -94.5q-60 -28 -143 -28 q-75 0 -134.5 20t-124.5 69l-80 -74l-34 13q19 154 19 324v635q0 147 -9 301q-4 71 -17 84t-59 13h-87zM354 319q0 -108 8 -124q16 -33 86.5 -76t154.5 -43q146 0 226 117t80 284q0 174 -77.5 265.5t-208.5 91.5q-87 0 -159.5 -50t-99.5 -117q-10 -26 -10 -120v-228z" />
<glyph unicode="c" horiz-adv-x="909" d="M45 443q0 129 43 224.5t120.5 149.5t193.5 106q82 37 183 37q77 0 132.5 -12.5t119.5 -44.5q-25 -132 -27 -264h-63v50q0 64 -18.5 90.5t-84.5 52.5t-144 26q-135 0 -208 -82.5t-73 -246.5q0 -211 108 -338q97 -115 250 -115q60 0 118 15t115 44l27 -24l-41 -64 q-68 -37 -140 -55.5t-147 -18.5q-147 0 -249.5 56t-158.5 162t-56 252z" />
<glyph unicode="d" horiz-adv-x="1251" d="M90 440q0 133 44 227t105 136.5t190 107.5q99 49 183 49q57 0 117.5 -15t124.5 -46v362q0 63 -14 79t-64 16h-86v60q178 12 332 74l18 -12q-7 -102 -12 -246l-4 -266l-2 -86v-597q0 -167 10 -186q15 -27 83 -36l71 -9v-59q-123 9 -217 9q-17 0 -126 -9q7 68 11 193 q-85 -66 -217 -185q-85 -28 -150 -28q-169 0 -283 127t-114 340zM264 500q0 -187 91.5 -293.5t222.5 -106.5q80 0 147 44.5t98 115.5t31 223v244q-69 74 -143.5 111t-155.5 37q-131 0 -211 -95.5t-80 -279.5z" />
<glyph unicode="e" horiz-adv-x="981" d="M57 450q0 168 70 291q46 81 170 150t241 69q177 0 280.5 -104t103.5 -291l-2 -59q-66 -16 -126 -21q-107 -8 -297 -8h-250q5 -197 101 -299t252 -102q70 0 139 23t137 69l17 -15l-32 -84q-83 -48 -171 -72t-181 -24q-203 0 -327.5 128.5t-124.5 348.5zM250 552 q155 -7 342 -7q75 0 145 7v56q0 88 -35 167q-22 49 -77 81.5t-127 32.5q-112 0 -179 -82t-69 -255z" />
<glyph unicode="f" horiz-adv-x="682" d="M23 -7v58h67q78 0 92 31q19 42 19 315v389l-144 -10v42q71 35 144 74v127q0 97 26.5 158t106.5 144q106 111 165 145q39 23 98 23q39 0 87 -13q-3 -51 -3 -82t3 -85l-25 -11q-59 52 -135 52q-84 0 -119.5 -57t-35.5 -278v-133q162 1 265 10l7 -10l-16 -96l-123 3 q-45 0 -133 -3v-389q0 -280 16.5 -313t100.5 -33h88v-58q-164 8 -235 8z" />
<glyph unicode="g" horiz-adv-x="1139" d="M84 -268q0 81 58 164q104 49 175 99q-82 27 -105.5 49.5t-23.5 57.5q0 42 23 83q13 25 66 61l97 69q-120 30 -173 85q-70 74 -70 189q0 101 52 184t153 131q129 61 249 61q76 0 133.5 -20t117.5 -68h84q130 0 202 8l11 -21q-30 -43 -53 -90h-185q23 -64 23 -105 q0 -89 -54 -171.5t-154 -133t-216 -50.5l-47 1q-66 -49 -83.5 -73t-17.5 -47q0 -38 39 -60t159 -22q46 0 132 3q123 5 178 5q79 0 121 -25.5t72 -89t30 -143.5q0 -112 -68 -214.5t-198 -164.5t-299 -62q-206 0 -317 89.5t-111 220.5zM242 -255q0 -109 81 -180t225 -71 q111 0 195 41t130.5 112.5t46.5 147.5q0 65 -32.5 114t-77.5 63q-23 7 -105 7h-234q-71 0 -97 -16q-84 -54 -102 -87q-30 -52 -30 -131zM305 659q0 -133 63.5 -208.5t159.5 -75.5t155.5 63.5t59.5 177.5q0 125 -64 201t-161 76q-96 0 -154.5 -62t-58.5 -172z" />
<glyph unicode="h" horiz-adv-x="1192" d="M31 -7v58l63 8q59 7 74 16.5t20 43.5q7 54 7 242v675q0 267 -14 299q-9 22 -81 22h-69v61q155 16 248 45l82 28q16 0 16 -21l-3 -41l-6 -180q-5 -136 -5 -211v-268l131 115q46 43 90.5 59t107.5 16q111 0 192.5 -44.5t113 -114t31.5 -236.5l-6 -296q0 -100 8 -158 q3 -24 16.5 -36t58.5 -16l76 -8v-58q-97 7 -189 7q-79 0 -157 -7q18 251 18 494q0 163 -20.5 221t-73.5 92t-134 34q-83 0 -151 -39.5t-94 -91.5q-18 -37 -18 -176v-174q0 -238 11 -263t80 -31l87 -8v-58q-156 7 -251 7q-99 0 -259 -7z" />
<glyph unicode="i" horiz-adv-x="596" d="M51 -7v58l86 9q50 4 61.5 18.5t14.5 96.5q5 127 5 350q0 155 -5 239q-2 31 -17.5 44t-69.5 13h-75v59q122 18 179.5 33t148.5 51l24 -15q-7 -75 -9 -165q-7 -292 -7 -431q0 -130 9 -222q4 -36 19 -50t72 -21l68 -9v-58q-146 7 -266 7q-118 0 -238 -7zM186 1293 q0 47 33 80.5t80 33.5q46 0 79 -33.5t33 -80.5t-33 -80t-79 -33q-47 0 -80 33t-33 80z" />
<glyph unicode="j" horiz-adv-x="479" d="M-86 -506q33 -6 51 -6q48 0 79 22q47 35 73.5 106t34 320t7.5 534q0 300 -11 327.5t-82 27.5h-72v57q139 15 250 52l88 31q16 0 16 -20l-2 -20q-2 -17 -8 -146q-12 -263 -12 -439l2 -257q0 -265 -45.5 -392.5t-135 -197.5t-181.5 -70l-31 1zM123 1293q0 47 33.5 80.5 t80.5 33.5t80 -33.5t33 -80.5t-33 -80t-80 -33t-80.5 33t-33.5 80z" />
<glyph unicode="k" horiz-adv-x="1139" d="M35 1356v59q84 0 240 42l101 32q16 0 16 -20l-5 -100q-2 -38 -6 -418v-401l13 -7q91 68 155 122q33 28 150 140l144 135h202v-58h-36q-35 0 -90 -33q-109 -65 -360 -273q188 -195 231 -234q200 -184 241 -217q25 -21 43 -28.5t51 -11.5v-44q-87 -39 -191 -64 q-59 48 -279 268q-161 161 -261 249h-13v-127q0 -252 16.5 -284t100.5 -32h61v-58l-54 2q-144 5 -190 5l-266 -7v58h59q77 0 91 29t14 285v596q0 331 -15 371q-9 24 -78 24h-85z" />
<glyph unicode="l" horiz-adv-x="596" d="M49 -7v58l86 7q57 5 65 29q13 39 13 355v511l-1 192l-3 131q0 49 -11 60q-16 16 -67 16h-82v60q208 19 332 78l17 -12q-17 -293 -17 -530v-514q0 -306 13 -347q7 -21 66 -27l85 -9v-58q-109 7 -208 7q-110 0 -288 -7z" />
<glyph unicode="m" horiz-adv-x="1808" d="M45 -7v58h76q65 0 78 34.5t13 375.5q0 250 -3 295t-17 57t-85 12h-62v55q147 20 253 55l73 28q18 0 18 -24l-2 -36q-2 -41 -2 -90v-33l134 120q32 29 68 41q52 18 103 18q113 0 181.5 -40.5t125.5 -145.5l129 118q33 30 81 46q63 22 122 22q90 0 163 -42t108.5 -109 t35.5 -182l-3 -391q0 -131 15 -154.5t77 -26.5l73 -3v-58l-48 3q-116 6 -157 6q-63 0 -147 -9q14 183 14 428q0 207 -18 272t-69 102t-128 37q-87 0 -149 -46.5t-77 -111.5q-10 -41 -10 -352q0 -183 3 -208.5t16.5 -36t86.5 -18.5l67 -8v-58q-177 9 -260 9q-66 0 -256 -9v58 h67q60 0 78 17t21 80q8 164 8 342q0 159 -21.5 219.5t-73 95.5t-123.5 35q-77 0 -140 -43t-86 -104q-15 -42 -15 -238q0 -215 4 -316q2 -47 15 -60t86 -20l69 -8v-58q-125 7 -236 7q-126 0 -274 -7z" />
<glyph unicode="n" horiz-adv-x="1192" d="M25 -7v58h72q74 0 86.5 34.5t12.5 415.5q0 171 -4 268q-2 32 -16 44t-79 12h-72v57q86 10 154 27t153 52q9 4 17 4q16 0 16 -23l-1 -38l-2 -135l151 134q27 24 57 35q66 22 132 22q107 0 185 -43.5t112 -113t34 -217.5l-5 -315q0 -163 14 -188q19 -32 74 -32h72v-58 q-107 7 -185 7q-76 0 -163 -7q19 195 19 527q0 134 -23.5 190t-79 90t-133.5 34q-97 0 -164.5 -49t-83.5 -108q-10 -39 -10 -204q0 -183 3 -340q1 -47 14 -59q25 -23 82 -23h71v-58q-169 7 -269 7q-106 0 -241 -7z" />
<glyph unicode="o" horiz-adv-x="1118" d="M72 473q0 138 64 249.5t179.5 174.5t262.5 63q213 0 341 -126t128 -336q0 -248 -167 -394q-149 -131 -357 -131q-200 0 -325.5 134.5t-125.5 365.5zM260 544q0 -206 84.5 -352.5t243.5 -146.5q121 0 195.5 92t74.5 279q0 151 -44 261.5t-116 161t-161 50.5 q-79 0 -142.5 -40t-93.5 -107q-41 -91 -41 -198z" />
<glyph unicode="p" horiz-adv-x="1231" d="M41 -495h73q77 0 91 33t14 352v614q0 160 -8 247q-4 42 -19.5 55.5t-72.5 13.5h-78v62q139 15 273 57l61 24q16 0 16 -28l-3 -106l-1 -71l140 124q53 47 90 59q59 19 138 19q178 0 288 -110t110 -284q0 -87 -25 -171.5t-61 -138t-81 -89.5q-15 -12 -122 -79l-40 -29 q-76 -53 -122.5 -69.5t-106.5 -16.5q-47 0 -99 13.5t-109 39.5v-141q0 -217 6 -306q3 -39 25 -56.5t93 -17.5h54v-56q-189 6 -277 6q-97 0 -247 -6v56zM387 208q64 -72 128 -102t138 -30q158 0 242 119t84 283q0 110 -38.5 188.5t-112.5 123t-159 44.5q-60 0 -117.5 -24 t-100.5 -66.5t-55 -78.5q-9 -27 -9 -143v-314z" />
<glyph unicode="q" horiz-adv-x="1147" d="M59 427q0 137 42 230.5t120 149.5q20 14 184 105q87 48 199 48q66 0 131.5 -17.5t131.5 -52.5l104 67l38 -22q-31 -92 -38 -157q-11 -100 -11 -336v-554q0 -306 19 -344t114 -38h45v-57l-157 4l-125 2q-47 0 -242 -6v57h54q91 0 107.5 35.5t16.5 352.5v235 q-119 -70 -234 -145q-28 -5 -52 -8t-44 -3q-174 0 -288.5 124t-114.5 330zM233 494q0 -189 88.5 -295.5t214.5 -106.5q66 0 128.5 32t127.5 110v191q-3 288 -7 348q-62 56 -120.5 79t-129.5 23q-135 0 -218.5 -99t-83.5 -282z" />
<glyph unicode="r" horiz-adv-x="809" d="M33 -7v58l96 8q51 4 64.5 19t17.5 97q7 144 7 342q0 241 -19 283q-13 27 -82 27h-84v58q97 11 173 28.5t135 44.5q14 7 23 7q11 0 15 -6t4 -27l-3 -198q40 38 87 100q56 73 104 100t101 27q55 0 84 -13q14 -6 14 -19l-1 -10q-15 -81 -17 -227h-45q-23 51 -54.5 72 t-75.5 21q-59 0 -109.5 -40t-67.5 -112t-17 -283q0 -139 11 -234q4 -35 20 -44q38 -21 112 -21h60v-58q-153 7 -290 7q-133 0 -263 -7z" />
<glyph unicode="s" horiz-adv-x="868" d="M72 33l3 14q4 15 7 53q9 97 9 151l-1 48h62v-65q0 -78 14 -97q26 -32 101.5 -62t155.5 -30q103 0 168 55.5t65 132.5q0 61 -38 98t-145 59q-199 40 -263 70t-96 80t-32 121q0 133 96.5 216t273.5 83q140 0 279 -56q-8 -68 -13 -228h-59q-2 88 -19 116q-23 37 -84 67 t-130 30q-91 0 -145.5 -46.5t-54.5 -116.5q0 -67 43 -101q43 -35 238 -74q144 -29 190 -54t74 -76t28 -117q0 -135 -115.5 -233t-308.5 -98q-123 0 -276 39q-27 7 -27 21z" />
<glyph unicode="t" horiz-adv-x="668" d="M44 763v43q86 33 159 69q-1 143 -8 310q116 49 167 79l26 -20q-8 -78 -17 -369q122 0 199 3l80 4l-11 -103l-41 1l-192 -1h-35v-392q0 -153 10 -196t40.5 -67t77.5 -24q29 0 56.5 11.5t54.5 34.5l29 -35l-97 -115q-32 -11 -62 -17t-58 -6q-74 0 -125 26.5t-74 69 t-23 128.5l3 193v380q-77 0 -159 -7z" />
<glyph unicode="u" horiz-adv-x="1235" d="M41 827v55q136 12 251 50l83 31q17 0 17 -25l-7 -102q-14 -212 -14 -394t15 -232.5t63 -84t117 -33.5q93 0 170.5 60t101.5 121q13 35 13 211q0 296 -11 322q-10 21 -90 21h-79v55q103 12 175 28t152 48q10 5 18 5q17 0 17 -19l-4 -93q-15 -342 -15 -602q0 -146 15 -167 q22 -31 95 -31h58v-58q-125 7 -212 7q-65 0 -130 -7l12 180l-59 -64q-69 -75 -140.5 -105.5t-176.5 -30.5q-90 0 -155 38t-94.5 98.5t-29.5 191.5q0 68 3 158l3 161q0 169 -9.5 188t-63.5 19h-89z" />
<glyph unicode="v" horiz-adv-x="1157" d="M21 882v58q147 -8 245 -8q105 0 230 8v-58h-44q-61 0 -86 -13q-17 -10 -17 -30q0 -17 18 -69t242 -605l179 432q61 150 75 208q4 16 4 27q0 19 -13 28t-67 15l-64 7v58q103 -7 184 -7q94 0 201 7v-58h-31q-23 0 -45 -9q-16 -7 -26 -18t-72 -139q-113 -233 -173 -368 t-152 -364h-103q-132 329 -270 640q-51 114 -62 146q-22 65 -49.5 88.5t-70.5 23.5h-33z" />
<glyph unicode="w" horiz-adv-x="1708" d="M18 883v58q159 -7 244 -7q83 0 245 7v-58h-54q-62 0 -85 -14q-18 -10 -18 -32q0 -49 171 -620l216 472q49 110 112 268h50q43 -122 89 -234l206 -523l153 410q44 121 57 182q5 25 5 40q0 23 -20.5 37t-63.5 14h-66v58q131 -7 232 -7q88 0 170 7v-58h-45q-35 0 -66 -35.5 t-172 -367.5q-118 -277 -184 -496h-97q-45 125 -146 381l-127 322q-140 -297 -227 -501q-39 -92 -76 -202h-102q-84 289 -190 630l-64 201q-13 33 -38.5 50.5t-58.5 17.5h-50z" />
<glyph unicode="x" horiz-adv-x="1057" d="M51 -7v61q51 0 69 9t98 98q116 129 234 278q-186 277 -240.5 325t-116.5 48q-17 0 -44 -3v54l191 93q63 -25 104 -72q66 -74 213 -315q130 173 265 371q39 -6 65 -6q21 0 88 6v-59q-54 -3 -87 -32q-54 -47 -287 -337q135 -199 226 -318q62 -81 100 -102q24 -13 76 -13 v-58q-92 -21 -200 -53q-51 37 -86 81q-22 28 -221 327q-94 -115 -144.5 -186t-128.5 -197q-42 7 -76 7q-36 0 -98 -7z" />
<glyph unicode="y" horiz-adv-x="1139" d="M12 883v58q104 -7 184 -7q62 0 289 7v-58h-74q-38 0 -55.5 -13t-17.5 -32q0 -16 19 -69q101 -278 238 -596q132 291 230 561q29 79 29 96q0 32 -68 42l-74 11v58q118 -7 210 -7q87 0 175 7v-58h-35q-23 0 -47 -13.5t-39 -37.5q-32 -51 -185 -389q-42 -93 -214 -504 q-152 -346 -172 -380q-39 -66 -100 -101.5t-132 -35.5q-29 0 -59.5 9t-61.5 26l47 156h23q27 -32 54 -48t55 -16q62 0 113 60t157 334q-44 116 -176 443l-93 229l-75 175q-35 93 -105 93h-40z" />
<glyph unicode="z" d="M43 40q97 106 263 310q225 278 402 516q-250 -1 -377 -9q-87 -5 -100.5 -17.5t-24.5 -84.5l-14 -85h-58q11 96 11 169l-2 93l8 8q306 -6 464 -6q167 0 329 6v-54q-52 -57 -102 -119l-157 -196q-99 -123 -386 -499l127 -2q208 0 360 14q59 6 76 24t35 123l11 60h59 q-23 -178 -23 -279v-8q-69 -8 -153 -8l-363 4q-223 0 -375 -7z" />
<glyph unicode="{" horiz-adv-x="682" d="M86 522q80 25 110 49q43 36 60.5 76t17.5 116v438q0 108 39 173t127 94q40 14 221 22l-33 -9q-68 -17 -110 -50t-58 -73q-24 -60 -24 -133v-440q0 -85 -18.5 -130t-60.5 -79q-31 -27 -118 -54q99 -28 148 -82t49 -191v-423q0 -63 21.5 -121.5t71.5 -95.5q37 -27 127 -47 q-155 6 -201 16q-59 13 -104.5 55t-61 101.5t-15.5 136.5v412q0 80 -17 119t-55.5 69.5t-115.5 50.5z" />
<glyph unicode="|" horiz-adv-x="1241" d="M569 -470v1960h131v-1960h-131z" />
<glyph unicode="}" horiz-adv-x="682" d="M21 -438l33 9q65 16 109.5 49t60.5 77q23 62 23 130v440q0 85 18.5 130t55 75.5t123.5 56.5q-100 29 -148.5 83t-48.5 191v423q0 62 -21.5 121t-71.5 96q-38 28 -127 47q153 -6 198 -16q60 -13 105.5 -54t62 -100.5t16.5 -138.5v-412q0 -80 17 -119.5t55 -69.5t115 -51 q-80 -24 -109 -48q-44 -36 -61 -76t-17 -116v-438q0 -109 -40 -174t-127 -94q-40 -13 -221 -21z" />
<glyph unicode="~" horiz-adv-x="1241" d="M87 552q1 109 29.5 171t85.5 99t119 37q45 0 99 -16q104 -31 281 -107q94 -40 153 -57q32 -8 69 -8q76 0 126.5 48t59.5 138h45q-5 -150 -62 -220q-70 -87 -183 -87q-46 0 -99 15.5t-274 105.5q-154 64 -219 64q-148 0 -186 -183h-44z" />
<glyph unicode="&#xa2;" d="M135 695q0 95 25 172.5t64.5 126t120.5 94.5q132 75 191 92q1 49 -5 143h88q-7 -93 -7 -132q34 4 55 4q107 0 220 -58q-26 -124 -29 -252h-54l-4 47q-6 67 -17.5 85.5t-61 42.5t-109.5 31v-744l42 -2q41 -1 106 16q51 12 105 40l22 -23l-38 -61q-114 -62 -237 -70 q-1 -125 4 -210h-88q5 76 8 210q-189 13 -295 130.5t-106 317.5zM309 779q0 -159 63 -267.5t164 -147.5v728q-105 -9 -166 -86.5t-61 -226.5z" />
<glyph unicode="&#xa3;" d="M28 21l1 23l1 34q42 32 105 66q43 70 61.5 122.5t27.5 128.5q5 43 8 257l-82 2l-61 -3l-48 -1l-11 9l11 80l191 -5q-5 87 -5 125q0 164 40 262q27 70 111 135q115 89 201 134.5t203 45.5q70 0 116.5 -13t98.5 -47q-13 -83 -24 -280h-60l-3 46q-4 77 -24.5 109.5t-72 57 t-120.5 24.5q-156 0 -218.5 -118.5t-67.5 -478.5h210q78 0 162 7l10 -9l-18 -86l-229 5h-139q-18 -164 -50.5 -250t-146.5 -259q106 14 205 14q89 0 289 -11q104 -6 138 -6q49 0 58 23q7 17 29 164h62q-12 -124 -14 -314l-60 -34l-86 -2q-88 0 -299 37q-189 33 -355 52 l-90 -96h-53z" />
<glyph unicode="&#xa5;" d="M-38 1311v63q99 12 201 44q63 -28 101 -71t117 -228q102 -237 162 -442l299 732h148v-35q-40 -44 -64.5 -85.5t-132.5 -266.5q-107 -223 -158 -345h337v-83h-367v-201h367v-83h-367q3 -192 19.5 -218.5t101.5 -29.5l76 -3v-66q-184 7 -312 7q-127 0 -258 -7v66h78 q64 0 82 11.5t25 38.5q9 38 11 155l1 46h-367v83h367v201h-367v83h327q-104 253 -208 451q-68 130 -103.5 154.5t-115.5 28.5z" />
<glyph unicode="&#xa8;" horiz-adv-x="682" d="M14 1153q0 45 32 77t78 32q45 0 77 -32t32 -77q0 -46 -32 -78t-77 -32q-46 0 -78 32t-32 78zM448 1153q0 45 32 77t78 32q45 0 77 -32t32 -77q0 -46 -32 -78t-77 -32t-77.5 32t-32.5 78z" />
<glyph unicode="&#xa9;" horiz-adv-x="1530" d="M34 704q0 196 98 366t267.5 268t365.5 98t365.5 -98t267.5 -268t98 -366q0 -195 -98 -365t-267.5 -268t-365.5 -98t-365.5 98t-267.5 268t-98 365zM134 704q0 -169 84.5 -315t231 -231t315.5 -85t315.5 85t231 231t84.5 315q0 170 -84.5 316t-231 230.5t-315.5 84.5 t-315.5 -84.5t-231 -230.5t-84.5 -316zM357 718q0 181 115 307t327 126q142 0 294 -58v-240h-72q-5 100 -24 136.5t-69.5 62t-122.5 25.5q-135 0 -221.5 -93t-86.5 -251q0 -166 88.5 -267t216.5 -101q80 0 142 39t110 130l61 -23q-38 -104 -132.5 -165t-219.5 -61 q-114 0 -206.5 54t-146 155t-53.5 224z" />
<glyph unicode="&#xab;" d="M100 466v26q138 128 358 352l52 -34q-155 -208 -241 -330q123 -181 241 -329l-52 -35q-191 196 -358 350zM514 466v26q137 127 358 352l52 -34q-154 -206 -241 -330q123 -181 241 -329l-52 -35q-194 199 -358 350z" />
<glyph unicode="&#xad;" horiz-adv-x="682" d="M43 413q30 76 51 145q146 -7 243 -7q80 0 294 7l8 -15q-33 -76 -49 -144q-137 9 -252 9q-129 0 -282 -9z" />
<glyph unicode="&#xae;" horiz-adv-x="1530" d="M34 704q0 196 98 366t267.5 268t365.5 98t365.5 -98t267.5 -268t98 -366q0 -195 -98 -365t-267.5 -268t-365.5 -98t-365.5 98t-267.5 268t-98 365zM134 704q0 -169 84.5 -315t231 -231t315.5 -85t315.5 85t231 231t84.5 315q0 170 -84.5 316t-231 230.5t-315.5 84.5 t-315.5 -84.5t-231 -230.5t-84.5 -316zM416 1104v58h352q155 0 225.5 -58t70.5 -156q0 -79 -49 -137t-144 -80q58 -38 119 -169.5t81 -155t89 -22.5v-56h-110q-53 0 -86.5 31t-83.5 157q-54 135 -83 160.5t-108 25.5h-49v-245q0 -47 8 -57.5t38 -12.5l57 -5v-54h-323v54 l30 3q53 4 61 11.5t8 51.5v591q0 47 -9.5 54t-93.5 11zM640 765l45 -2q145 0 203.5 45t58.5 131q0 81 -50 122.5t-170 41.5q-61 0 -74 -10t-13 -44v-284z" />
<glyph unicode="&#xb4;" horiz-adv-x="682" d="M143 1038l296 283q37 36 53 44.5t36 8.5q29 0 47.5 -17.5t18.5 -43.5q0 -24 -19.5 -46.5t-94.5 -67.5l-269 -161h-68z" />
<glyph unicode="&#xb8;" horiz-adv-x="682" d="M185 -354l31 60q100 -32 155 -32q52 0 79.5 24t27.5 62q0 35 -24 56.5t-68 21.5q-25 0 -55 -10l-16 13l71 159h61l-44 -106q33 6 55 6q69 0 109 -36t40 -91q0 -69 -61.5 -119.5t-167.5 -50.5q-93 0 -193 43z" />
<glyph unicode="&#xbb;" d="M100 148q148 198 241 331q-120 176 -241 329l51 34q193 -196 359 -350v-26q-151 -139 -359 -352zM514 148q154 207 241 331q-123 180 -241 329l52 34q185 -190 358 -350v-26q-151 -139 -358 -352z" />
<glyph unicode="&#x2c6;" horiz-adv-x="682" d="M36 1032l257 344h96l258 -344h-63l-245 217l-240 -217h-63z" />
<glyph unicode="&#x2da;" horiz-adv-x="682" d="M133 1282q0 86 60.5 146.5t147.5 60.5q86 0 147 -60.5t61 -146.5q0 -85 -61 -146t-147 -61t-147 61t-61 146zM244 1282q0 -44 28.5 -74t68.5 -30t68.5 30t28.5 74t-28.5 74.5t-68.5 30.5t-68.5 -30.5t-28.5 -74.5z" />
<glyph unicode="&#x2dc;" horiz-adv-x="682" d="M-24 1102q57 199 221 199q70 0 186 -52q101 -45 143 -45q84 0 126 104h54q-27 -101 -84.5 -153.5t-131.5 -52.5q-69 0 -175 45q-118 51 -165 51q-81 0 -120 -96h-54z" />
<glyph unicode="&#x401;" horiz-adv-x="1251" d="M53 1353v62h108l106 -3q89 -3 135 -3l384 5l182 1q93 1 188 -8q-38 -118 -42 -307h-68q0 110 -11 183q-118 44 -290 44q-137 0 -287 -12q1 -94 -2 -188l-2 -154v-203q99 -6 175 -6q238 0 269.5 16.5t31.5 102.5v65h68q-7 -151 -7 -241q0 -95 7 -224h-68v58 q0 96 -37.5 117.5t-264.5 21.5q-84 0 -174 -8v-245l1 -141q0 -132 3 -193q146 -11 313 -11q112 0 188 10q49 6 104 26q25 88 51 220h67q-27 -219 -27 -292l2 -45q-115 -11 -226 -11l-157 3q-260 7 -382 7q-117 0 -311 -7v63h31q87 0 109.5 17t30 80t7.5 278v549 q0 135 -6.5 221t-14 102.5t-21.5 25.5t-86 16zM311 1631q0 45 32 77t78 32q45 0 77 -32t32 -77q0 -46 -32 -78t-77 -32q-46 0 -78 32t-32 78zM745 1631q0 45 32 77t78 32q45 0 77 -32t32 -77q0 -46 -32 -78t-77 -32t-77.5 32t-32.5 78z" />
<glyph unicode="&#x402;" horiz-adv-x="1544" d="M38 1416l638 -8q85 0 545 8q-19 -169 -22 -326h-61l-11 133q-6 69 -20 81t-121 16.5t-175 4.5h-78q-11 -150 -11 -316v-251l140 124q92 81 227 81q197 0 306.5 -114t109.5 -320q0 -231 -115 -399t-304 -248l-73 9v36q323 129 323 517q0 196 -91.5 293t-231.5 97 q-66 0 -129 -25t-109 -78t-49.5 -90.5t-3.5 -118.5v-167q0 -215 13.5 -257t116.5 -42h69v-63q-163 7 -316 7q-113 0 -276 -7v63h84q82 0 101.5 41.5t19.5 346.5v571q0 169 -7 310h-103q-258 0 -275.5 -15.5t-24.5 -86.5l-14 -133h-62q2 68 2 119q0 78 -12 207z" />
<glyph unicode="&#x403;" horiz-adv-x="1122" d="M37 -7v62h80q92 0 108.5 37.5t16.5 236.5v754q0 167 -12.5 218.5t-120.5 51.5h-72v63q160 -7 291 -7l584 11q96 0 169 -9q-33 -98 -35 -303h-64q-5 106 -24 186q-129 36 -282 36q-117 0 -234 -13q-12 -129 -12 -234v-754q0 -205 22 -239.5t112 -34.5h71v-62 q-180 7 -305 7q-123 0 -293 -7zM412 1517l296 283q37 36 53 44.5t36 8.5q29 0 47.5 -17.5t18.5 -43.5q0 -24 -19.5 -46.5t-94.5 -67.5l-269 -161h-68z" />
<glyph unicode="&#x404;" horiz-adv-x="1434" d="M47 709q0 319 221 523t619 204q143 0 330 -46q103 -25 153 -33q-45 -100 -52 -302h-67l-8 178q-173 117 -384 117q-271 0 -430.5 -157.5t-167.5 -397.5q154 -11 258 -11q41 0 210 7q67 3 87 3q21 0 145 -8q7 -107 38 -191l-57 -5l-54 106q-81 10 -232 10q-230 0 -395 -10 q14 -274 199 -447.5t467 -173.5q259 0 431 128l21 -20q-21 -47 -39 -93q-228 -117 -474 -117q-364 0 -591.5 203.5t-227.5 532.5z" />
<glyph unicode="&#x405;" horiz-adv-x="1075" d="M27 993q0 195 141 319t390 124q100 0 200.5 -21.5t201.5 -65.5q-28 -104 -30 -276h-69v80q0 78 -21 106t-109.5 59.5t-186.5 31.5q-160 0 -251.5 -81t-91.5 -208q0 -80 37.5 -137.5t101 -83t269.5 -44.5q206 -20 278.5 -53t116 -106t43.5 -173q0 -201 -168 -346 t-448 -145q-96 0 -193.5 19.5t-196.5 57.5q18 120 17 308h68v-50q0 -97 10 -120t47 -49q55 -39 131 -59.5t164 -20.5q189 0 292 89t103 226q0 80 -35 135.5t-98 82.5t-233 41q-226 18 -307 54t-127 113.5t-46 192.5z" />
<glyph unicode="&#x406;" horiz-adv-x="690" d="M61 -7v63h63q93 0 111.5 45t18.5 431v339q0 400 -16 441t-96 41h-81v63q166 -7 328 -7q135 0 245 7v-63h-77q-71 0 -89 -17t-21 -86q-5 -107 -5 -381v-345q0 -389 17 -428.5t109 -39.5h66v-63q-123 7 -268 7q-169 0 -305 -7z" />
<glyph unicode="&#x407;" horiz-adv-x="690" d="M18 1631q0 45 32 77t78 32q45 0 77 -32t32 -77q0 -46 -32 -78t-77 -32q-46 0 -78 32t-32 78zM61 -7v63h63q93 0 111.5 45t18.5 431v339q0 400 -16 441t-96 41h-81v63q166 -7 328 -7q135 0 245 7v-63h-77q-71 0 -89 -17t-21 -86q-5 -107 -5 -381v-345q0 -389 17 -428.5 t109 -39.5h66v-63q-123 7 -268 7q-169 0 -305 -7zM452 1631q0 45 32 77t78 32q45 0 77 -32t32 -77q0 -46 -32 -78t-77 -32t-77.5 32t-32.5 78z" />
<glyph unicode="&#x408;" horiz-adv-x="682" d="M-23 -239l21 11q54 -34 110 -34q80 0 112 54.5t32 291.5v862q0 330 -19 368.5t-119 38.5h-67v63q108 -7 274 -7q184 0 312 7v-63l-66 -4q-81 -7 -97.5 -18t-22.5 -37.5t-6 -170.5v-861q0 -214 -28 -307q-43 -148 -159.5 -252t-222.5 -104q-19 0 -54 5q3 44 3 72z" />
<glyph unicode="&#x409;" horiz-adv-x="1987" d="M-1 -21q3 38 3 75q0 38 -3 80l21 10q53 -35 95 -35q54 0 95.5 37.5t74 162t47 377.5t14.5 426q0 143 -12 192t-117 49h-72v63q218 -10 632 -10l654 10v-63h-43q-112 0 -131.5 -29.5t-19.5 -301.5v-198h177q534 0 534 -364q0 -206 -172 -336.5t-375 -130.5q-19 0 -70 3 q-82 4 -159 4q-60 0 -133 -4q-59 -3 -83 -3v45q63 30 74.5 47.5t15.5 144t4 178.5v581q0 51 -13 329q-207 5 -425 5q-51 0 -165 -5q-9 -77 -9 -263q0 -622 -90.5 -852t-278.5 -230q-25 0 -70 6zM1237 94q94 -14 143 -14q155 0 256 92.5t101 257.5q0 158 -90 237t-301 79 q-43 0 -109 -4v-355q0 -108 1 -126q4 -70 4 -97q0 -25 -5 -70z" />
<glyph unicode="&#x40a;" horiz-adv-x="2152" d="M45 -7v62h62q112 0 127.5 42t15.5 322v602q0 252 -17.5 292t-113.5 40h-74v63q155 -7 284 -7q177 0 302 7v-63h-43q-118 0 -134 -33t-16 -299v-211q165 -5 425 -5q227 0 352 5v179q0 252 -14.5 308t-118.5 56h-72v63q132 -7 305 -7q140 0 293 7v-63h-54 q-113 0 -131.5 -30t-18.5 -302v-211h176q534 0 534 -357q0 -189 -162.5 -324.5t-421.5 -135.5q-31 0 -111 4q-59 3 -101 3q-38 0 -113 -4q-59 -3 -83 -3v45l30 17q46 27 54.5 62.5t8.5 290.5v310q-119 8 -341 8q-290 0 -436 -8v-299q0 -72 5 -169l5 -111q1 -56 36.5 -70 t78.5 -14h68v-62q-120 7 -252 7q-126 0 -334 -7zM1404 387q0 -230 4 -293q83 -14 134 -14q163 0 262 94.5t99 249.5q0 134 -80.5 221t-310.5 87q-43 0 -108 -4v-341z" />
<glyph unicode="&#x40b;" horiz-adv-x="1552" d="M39 1416l638 -8q85 0 545 8q-19 -169 -22 -326h-61l-11 133q-6 69 -20 81t-121 16.5t-175 4.5h-78q-11 -150 -11 -316v-239l98 85q76 66 118.5 87t120.5 21q134 0 232 -73t98 -291l-7 -380q0 -102 14 -131t69 -32l76 -5v-58q-83 7 -181 7q-111 0 -176 -7q18 234 18 477 q0 154 -14.5 218.5t-70 105t-143.5 40.5q-87 0 -152.5 -46t-82.5 -88.5t-17 -172.5v-172q0 -217 12.5 -258t117.5 -41h75v-63q-163 7 -322 7q-113 0 -276 -7v63h84q84 0 102.5 40.5t18.5 347.5v571q0 169 -7 310h-103q-258 0 -275.5 -15.5t-24.5 -86.5l-14 -133h-62 q2 68 2 119q0 78 -12 207z" />
<glyph unicode="&#x40c;" horiz-adv-x="1487" d="M57 -7v63h81q80 0 96 29.5t16 254.5v669q0 275 -16 309.5t-96 34.5h-81v63q183 -7 265 -7q59 0 308 7v-63l-79 -3q-68 -3 -86 -18.5t-22.5 -61.5t-4.5 -265v-270h14q82 67 141 122.5t194 194.5l284 294v70q110 -7 182 -7q75 0 166 7v-63h-54q-72 0 -122 -27.5 t-231 -193.5l-382 -351l682 -635l62 -59q19 -19 38.5 -25t64.5 -6v-63q-82 7 -144 7q-65 0 -142 -7l-689 654q-35 33 -43 33q-21 0 -21 -39v-305q0 -223 9 -244q15 -36 108 -36h75v-63q-163 7 -289 7q-132 0 -284 -7zM623 1517l296 283q37 36 53 44.5t36 8.5 q29 0 47.5 -17.5t18.5 -43.5q0 -24 -19.5 -46.5t-94.5 -67.5l-269 -161h-68z" />
<glyph unicode="&#x40e;" horiz-adv-x="1464" d="M24 1353v63q138 -7 277 -7q119 0 268 7v-72h-99q-51 0 -66 -9.5t-15 -32.5q0 -44 135 -369l274 -662l245 630q134 345 134 392q0 27 -11.5 35t-85.5 16l-86 9v63q124 -7 230 -7q82 0 216 7v-63h-40q-50 0 -75.5 -27t-72.5 -155l-328 -823l-184 -498q-49 -137 -147 -192.5 t-207 -55.5q-12 0 -38 1v157l21 12q48 -35 107 -35q63 0 110 33.5t109 233.5q-48 145 -92 251l-439 1060q-14 38 -99 38h-41zM474 1608q66 36 117 77q32 26 54 40q200 -108 487 -131l8 -38l-85 -42q-312 0 -573 61z" />
<glyph unicode="&#x40f;" horiz-adv-x="1667" d="M45 -7v63h74q91 0 111 35t20 297v602q0 277 -15.5 320t-127.5 43h-62v63q210 -8 329 -8q132 0 257 8v-63h-68q-83 0 -104 -35t-21 -328v-602q0 -114 8 -297q119 -8 457 -8q224 0 313 8q13 246 13 331v548q0 326 -26.5 354.5t-109.5 28.5h-69v63q147 -7 309 -7 q169 0 289 7v-63h-77q-98 0 -113 -40t-15 -338v-553q0 -275 9 -320.5t119 -45.5h77v-63q-49 0 -196 4q-124 4 -129 4q-284 0 -401 -76q-11 -78 -19 -205l-5 -77h-75q-2 134 -22 282q-115 76 -424 76q-5 0 -121 -4q-139 -4 -185 -4z" />
<glyph unicode="&#x410;" horiz-adv-x="1593" d="M39 -7v63l30 1q70 2 90.5 14.5t43.5 61.5q71 144 145 311l275 623q110 248 150 360h68l506 -1177q51 -120 68 -144.5t39 -35t99 -14.5v-63q-130 7 -248 7q-110 0 -293 -7v63l99 6q53 4 63 11q15 11 15 28q0 18 -30 94l-110 278h-578l-68 -161q-67 -160 -67 -196 q0 -23 12.5 -33t63.5 -16l96 -11v-63q-96 7 -216 7q-144 0 -253 -7zM508 555h504l-252 602z" />
<glyph unicode="&#x411;" horiz-adv-x="1251" d="M57 1353v63h83q26 0 92 -4q79 -4 124 -4q46 0 149 3q283 9 413 9q95 0 167 -9q-32 -98 -34 -303h-64q-6 106 -25 186q-129 36 -281 36q-117 0 -235 -13q-8 -140 -8 -361v-131h204q533 0 533 -364q0 -199 -166 -333t-399 -134q-26 0 -79 2q-100 4 -158 4q-60 0 -134 -4 q-58 -3 -83 -3v45q62 30 73.5 46t16 94t4.5 230v623q0 204 -12 263t-113 59h-68zM438 387q0 -207 4 -293q80 -14 151 -14q177 0 274 95t97 255q0 79 -29 151.5t-107.5 118t-267.5 45.5q-62 0 -122 -3v-355z" />
<glyph unicode="&#x412;" horiz-adv-x="1251" d="M57 1353v62h83l92 -3q72 -3 113 -3q63 0 249 5l146 3q172 0 257 -60q107 -76 107 -215q0 -114 -75.5 -200t-258.5 -144q215 -14 310 -99.5t95 -236.5q0 -191 -159.5 -329.5t-405.5 -138.5l-79 2q-100 4 -169 4q-50 0 -123 -4l-83 -3v45q62 30 73.5 46t13.5 53 q7 119 7 271v623q0 250 -18 283q-22 39 -107 39h-68zM438 94q93 -14 154 -14q177 0 274.5 94.5t97.5 256.5q0 108 -43 178.5t-120.5 103t-247.5 32.5q-51 0 -115 -3v-355l1 -126q3 -68 3 -104q0 -27 -4 -63zM438 826q50 -3 92 -3q199 0 285 70.5t86 203.5q0 115 -72 176.5 t-230 61.5q-70 0 -152 -13q-9 -122 -9 -369v-127z" />
<glyph unicode="&#x413;" horiz-adv-x="1122" d="M37 -7v62h80q92 0 108.5 37.5t16.5 236.5v754q0 167 -12.5 218.5t-120.5 51.5h-72v63q160 -7 291 -7l584 11q96 0 169 -9q-33 -98 -35 -303h-64q-5 106 -24 186q-129 36 -282 36q-117 0 -234 -13q-12 -129 -12 -234v-754q0 -205 22 -239.5t112 -34.5h71v-62 q-180 7 -305 7q-123 0 -293 -7z" />
<glyph unicode="&#x414;" horiz-adv-x="1540" d="M-28 -357q37 146 53 287l12 98q176 167 245.5 372.5t69.5 698.5q0 152 -11 203t-119 51h-72v63q246 -12 626 -12l609 11l77 1v-63h-75q-110 0 -119 -45t-9 -321v-565q0 -275 8.5 -320.5t119.5 -45.5h119q-43 -209 -44 -413h-75q-3 134 -23 282q-66 40 -149.5 57.5 t-449.5 17.5q-324 0 -424.5 -14t-196.5 -61q-59 -147 -97 -282h-75zM200 95q439 -9 585 -9q167 0 273 9q12 241 12 325v569q0 83 -12 329q-90 8 -285 8q-177 0 -332 -8q0 -579 -44.5 -810.5t-196.5 -412.5z" />
<glyph unicode="&#x415;" horiz-adv-x="1251" d="M53 1353v62h108l106 -3q89 -3 135 -3l384 5l182 1q93 1 188 -8q-38 -118 -42 -307h-68q0 110 -11 183q-118 44 -290 44q-137 0 -287 -12q1 -94 -2 -188l-2 -154v-203q99 -6 175 -6q238 0 269.5 16.5t31.5 102.5v65h68q-7 -151 -7 -241q0 -95 7 -224h-68v58 q0 96 -37.5 117.5t-264.5 21.5q-84 0 -174 -8v-245l1 -141q0 -132 3 -193q146 -11 313 -11q112 0 188 10q49 6 104 26q25 88 51 220h67q-27 -219 -27 -292l2 -45q-115 -11 -226 -11l-157 3q-260 7 -382 7q-117 0 -311 -7v63h31q87 0 109.5 17t30 80t7.5 278v549 q0 135 -6.5 221t-14 102.5t-21.5 25.5t-86 16z" />
<glyph unicode="&#x416;" horiz-adv-x="2089" d="M10 -7v63h28q34 0 59 17t78 73l600 635l-300 351q-105 122 -183 171.5t-170 49.5h-54v63q89 -7 161 -7q79 0 176 7v-70l225 -267q268 -317 312 -344h14v270q0 280 -13 313.5t-180 34.5v63q4 0 61 -2q172 -5 221 -5q34 0 281 7v-63l-79 -3q-87 -3 -100 -37.5t-13 -307.5 v-270h14q90 76 312 344l225 267v70q100 -7 176 -7t160 7v-63h-53q-95 0 -174 -52t-179 -169l-300 -351l600 -635q56 -59 79.5 -74.5t57.5 -15.5h28v-63q-78 7 -140 7t-135 -7l-607 654q-31 33 -44 33q-20 0 -20 -39v-305q0 -222 12 -251t105 -29h75v-63q-154 7 -281 7 q-129 0 -282 -7v63h76q92 0 104.5 29.5t12.5 250.5v305q0 39 -22 39q-12 0 -43 -33l-606 -654q-76 7 -136 7q-62 0 -139 -7z" />
<glyph unicode="&#x417;" horiz-adv-x="1155" d="M58 176l27 36q197 -141 437 -141q159 0 250 89t91 237q0 341 -414 341q-60 0 -111 -6v88q75 -8 134 -8q178 0 255.5 80.5t77.5 193.5q0 106 -68 181t-228 75q-290 0 -290 -199v-79h-69q-2 179 -31 278q217 90 436 90q241 0 344 -82t103 -213q0 -249 -340 -353 q172 0 296 -84.5t124 -257.5q0 -190 -141.5 -329.5t-406.5 -139.5q-221 0 -438 109z" />
<glyph unicode="&#x418;" horiz-adv-x="1704" d="M45 1353v63q155 -7 284 -7q177 0 302 7v-63h-43q-119 0 -135.5 -33t-16.5 -299v-847l213 304l306 446l329 492l152 -8q32 0 227 8v-63h-77q-99 0 -113.5 -37t-14.5 -328v-554q0 -295 14.5 -336.5t113.5 -41.5h77v-63q-123 7 -289 7q-173 0 -309 -7v63h69q96 0 116 40.5 t20 342.5v549q0 80 8 271l-647 -951q-191 -281 -214 -298t-183 -43q16 246 16 435v619q0 257 -19 294.5t-112 37.5h-74z" />
<glyph unicode="&#x419;" horiz-adv-x="1704" d="M45 1353v63q155 -7 284 -7q177 0 302 7v-63h-43q-119 0 -135.5 -33t-16.5 -299v-847l213 304l306 446l329 492l152 -8q32 0 227 8v-63h-77q-99 0 -113.5 -37t-14.5 -328v-554q0 -295 14.5 -336.5t113.5 -41.5h77v-63q-123 7 -289 7q-173 0 -309 -7v63h69q96 0 116 40.5 t20 342.5v549q0 80 8 271l-647 -951q-191 -281 -214 -298t-183 -43q16 246 16 435v619q0 257 -19 294.5t-112 37.5h-74zM549 1608q68 36 118 77q31 26 54 40q200 -108 486 -131l9 -38l-86 -42q-311 0 -572 61z" />
<glyph unicode="&#x41a;" horiz-adv-x="1487" d="M57 -7v63h81q80 0 96 29.5t16 254.5v669q0 275 -16 309.5t-96 34.5h-81v63q183 -7 265 -7q59 0 308 7v-63l-79 -3q-68 -3 -86 -18.5t-22.5 -61.5t-4.5 -265v-270h14q82 67 141 122.5t194 194.5l284 294v70q110 -7 182 -7q75 0 166 7v-63h-54q-72 0 -122 -27.5 t-231 -193.5l-382 -351l682 -635l62 -59q19 -19 38.5 -25t64.5 -6v-63q-82 7 -144 7q-65 0 -142 -7l-689 654q-35 33 -43 33q-21 0 -21 -39v-305q0 -223 9 -244q15 -36 108 -36h75v-63q-163 7 -289 7q-132 0 -284 -7z" />
<glyph unicode="&#x41b;" horiz-adv-x="1499" d="M-1 -21q3 38 3 75q0 38 -3 80l21 10q53 -35 95 -35q54 0 95.5 37.5t74 162t47 377.5t14.5 426q0 143 -12 192t-117 49h-72v63q246 -12 626 -12l610 11l77 1v-63h-76q-100 0 -114.5 -37t-14.5 -328v-659q0 -192 15 -233t110 -41h80v-62q-171 7 -292 7q-127 0 -306 -7v62 h71q93 0 113.5 36.5t20.5 237.5v659q0 94 -13 330q-92 8 -285 8q-197 0 -320 -8q-9 -77 -9 -263q0 -622 -90.5 -852t-278.5 -230q-25 0 -70 6z" />
<glyph unicode="&#x41c;" horiz-adv-x="1937" d="M47 -7v63h65q66 0 88 19t27 69q13 140 13 302v566q0 205 -9 271q-4 34 -29.5 52t-101.5 18h-53v63q174 -7 219 -7q57 0 162 7q121 -269 279 -593l263 -541l243 501q128 263 292 633q125 -7 176 -7q59 0 213 7v-63h-65q-88 0 -107.5 -30.5t-19.5 -219.5v-731 q0 -244 20.5 -280t114.5 -36h57v-63q-139 7 -266 7q-140 0 -293 -7v63h66q79 0 95.5 34.5t16.5 296.5v813l-297 -618q-167 -348 -274 -608h-40q-37 89 -212 457l-358 741v-773q0 -270 21.5 -306.5t133.5 -36.5h37v-63q-139 7 -226 7q-63 0 -251 -7z" />
<glyph unicode="&#x41d;" horiz-adv-x="1704" d="M45 -7v63h62q105 0 124 35.5t19 325.5v603q0 262 -19.5 297.5t-111.5 35.5h-74v63q165 -7 307 -7q143 0 279 7v-63h-43q-93 0 -115 -15t-27 -49q-8 -55 -8 -267v-228q178 -8 453 -8q233 0 379 8v195q0 171 -12 287q-4 41 -27 59t-94 18h-72v63q153 -7 290 -7q148 0 308 7 v-63h-76q-77 0 -98.5 -17t-26 -62.5t-4.5 -286.5v-553q0 -307 17.5 -342.5t109.5 -35.5h78v-63q-138 7 -285 7q-168 0 -313 -7v63h69q76 0 98 17.5t27 65.5q11 103 11 300v260q-141 8 -360 8q-312 0 -472 -8v-279q0 -72 5 -169q6 -136 10 -150.5t29 -29.5t81 -15h68v-63 q-130 7 -251 7q-117 0 -335 -7z" />
<glyph unicode="&#x41e;" horiz-adv-x="1610" d="M47 705q0 329 212 530t565 201q346 0 542.5 -186.5t196.5 -495.5q0 -333 -228 -557t-575 -224q-217 0 -374 88t-248 257t-91 387zM250 787q0 -226 77.5 -393.5t207.5 -251t297 -83.5q155 0 271 71t182.5 212t66.5 343q0 212 -73.5 362.5t-201.5 226.5t-303 76 q-160 0 -276 -67t-182 -196.5t-66 -299.5z" />
<glyph unicode="&#x41f;" horiz-adv-x="1667" d="M45 -7v63h62q110 0 126.5 41t16.5 322v602q0 251 -17.5 291.5t-113.5 40.5h-74v63q638 -8 837 -8q127 0 740 8v-63h-77q-110 0 -119 -45t-9 -320v-554q0 -294 14 -336t114 -42h77v-63q-123 7 -289 7q-173 0 -309 -7v63h69q96 0 116 40.5t20 342.5v549q0 51 -13 330 q-90 8 -321 8q-336 0 -449 -8q-8 -148 -8 -297v-602q0 -72 5 -169l5 -110q1 -57 36.5 -70.5t78.5 -13.5h68v-63q-120 7 -252 7q-126 0 -334 -7z" />
<glyph unicode="&#x420;" horiz-adv-x="1237" d="M45 -7v63h90q63 0 81 15.5t23 63t11 290.5v534l-3 207q-2 129 -27.5 158t-124.5 29h-50v63q125 -5 317 -5q113 0 251 6q91 4 138 4q242 0 352 -88q109 -88 109 -238q0 -109 -63 -209.5t-178.5 -161.5t-246.5 -61q-60 0 -150 19l-20 76q88 -23 147 -23q138 0 219 83.5 t81 228.5q0 140 -86.5 218.5t-257.5 78.5q-97 0 -212 -37q-7 -144 -7 -307v-571q0 -301 18 -337t118 -36h69v-63q-177 7 -279 7q-90 0 -319 -7z" />
<glyph unicode="&#x421;" horiz-adv-x="1452" d="M82 709q0 211 101 377.5t285.5 258t453.5 91.5q141 0 330 -46q94 -22 153 -33q-45 -107 -52 -302h-67l-8 178q-89 59 -186.5 88t-203.5 29q-270 0 -432.5 -164t-162.5 -439q0 -193 82.5 -344t234.5 -239t321 -88q134 0 265 31q98 23 197 96l21 -20q-21 -46 -39 -93 q-117 -58 -235.5 -87.5t-238.5 -29.5q-246 0 -432.5 95t-286.5 262.5t-100 378.5z" />
<glyph unicode="&#x422;" horiz-adv-x="1255" d="M34 1416q540 -7 635 -7l553 7q-19 -169 -22 -326h-62l-10 131q-6 68 -17 80.5t-49 15.5q-110 8 -250 8h-78q-11 -150 -11 -316v-570q0 -318 16 -350.5t114 -32.5h75v-63q-177 7 -300 7q-124 0 -298 -7v63h84q66 0 86 17.5t25 68.5q10 117 10 302v571q0 169 -7 310h-102 q-247 0 -272 -11.5t-33 -89.5l-14 -134h-63l2 119q0 72 -12 207z" />
<glyph unicode="&#x423;" horiz-adv-x="1464" d="M24 1353v63q138 -7 277 -7q119 0 268 7v-72h-99q-51 0 -66 -9.5t-15 -32.5q0 -44 135 -369l274 -662l245 630q134 345 134 392q0 27 -11.5 35t-85.5 16l-86 9v63q124 -7 230 -7q82 0 216 7v-63h-40q-50 0 -75.5 -27t-72.5 -155l-328 -823l-184 -498q-49 -137 -147 -192.5 t-207 -55.5q-12 0 -38 1v157l21 12q48 -35 107 -35q63 0 110 33.5t109 233.5q-48 145 -92 251l-439 1060q-14 38 -99 38h-41z" />
<glyph unicode="&#x424;" horiz-adv-x="1745" d="M49 678q0 216 174.5 376.5t447.5 160.5q50 0 108 -7q-5 86 -8.5 103.5t-22.5 29.5t-82 12h-72v63q98 -7 258 -7q208 0 298 7v-63h-69q-76 0 -95.5 -20t-19.5 -97q0 -10 1 -28q83 5 137 5q271 0 431.5 -131t160.5 -330q0 -218 -175 -378t-446 -160q-49 0 -108 8 q0 -111 20 -138.5t101 -27.5h62v-63q-110 7 -270 7q-180 0 -286 -7v63h58q61 0 86 14t29.5 34t11.5 118q-87 -5 -137 -5q-279 0 -436 133t-157 328zM262 722q0 -209 122.5 -322.5t286.5 -113.5q48 0 108 11v834q-59 9 -104 9q-220 0 -316.5 -115t-96.5 -303zM967 298 q55 -8 101 -8q222 0 318.5 115t96.5 303q0 166 -68.5 257.5t-152 135t-190.5 43.5q-48 0 -105 -13v-833z" />
<glyph unicode="&#x425;" horiz-adv-x="1366" d="M33 -7v63h45q41 0 67 24t219 293l240 333l-150 250q-142 238 -230 323q-49 46 -103 46q-19 0 -63 -5v63l294 47q49 -40 83.5 -84.5t121.5 -191.5l170 -288l374 549h208v-62h-39q-41 0 -63.5 -13.5t-135.5 -158.5q-214 -274 -298 -395l328 -528q100 -161 123.5 -181.5 t67.5 -20.5h42v-63q-116 7 -177 7t-124 -7l-375 631q-82 -106 -223 -324.5t-188 -306.5q-48 7 -94 7q-55 0 -120 -7z" />
<glyph unicode="&#x426;" horiz-adv-x="1667" d="M45 -7v63h74q91 0 111 35t20 297v602q0 277 -15.5 320t-127.5 43h-62v63q210 -8 329 -8q132 0 257 8v-63h-68q-83 0 -104 -35t-21 -328v-602q0 -109 8 -293q119 -8 457 -8q224 0 313 8q13 243 13 327v548q0 326 -26.5 354.5t-109.5 28.5h-69v63q147 -7 308 -7 q168 0 288 7v-63h-76q-97 0 -112 -39.5t-15 -338.5v-553q0 -275 8.5 -320.5t118.5 -45.5h120q-42 -210 -44 -413h-76q-2 133 -22 282q-83 50 -194 63t-324 13q-267 0 -959 -8z" />
<glyph unicode="&#x427;" horiz-adv-x="1552" d="M20 1353v63q155 -7 284 -7q177 0 302 7v-63h-43q-102 0 -125 -24t-23 -135q0 -264 16.5 -346t109.5 -145.5t232 -63.5q132 0 346 56q0 566 -16.5 612t-116.5 46h-72v63q131 -7 304 -7q140 0 294 7v-63h-77q-110 0 -119 -45.5t-9 -320.5v-553q0 -295 14.5 -336.5 t113.5 -41.5h77v-63q-123 7 -289 7q-198 0 -331 -7v63h69q66 0 98.5 18.5t41.5 39.5t13.5 149t4.5 176v173q-234 -74 -389 -74q-129 0 -238 40.5t-190 132t-81 296.5q0 233 -7.5 289.5t-119.5 56.5h-74z" />
<glyph unicode="&#x428;" horiz-adv-x="2263" d="M45 -7v63h74q92 0 111.5 36.5t19.5 295.5v602q0 277 -15.5 320t-127.5 43h-62v63q210 -8 329 -8q132 0 257 8v-63h-68q-83 0 -104 -34.5t-21 -328.5v-602q0 -149 8 -293q131 -8 327 -8q157 0 252 8l8 158q4 63 4 167v550q0 326 -26.5 354.5t-109.5 28.5h-55v63 q149 -7 290 -7q148 0 268 7v-63h-54q-84 0 -104.5 -36t-20.5 -327v-602q0 -152 8 -293q132 -8 305 -8q190 0 279 8l9 158q4 63 4 167v550q0 326 -26.5 354.5t-109.5 28.5h-69v63q147 -7 309 -7q168 0 289 7v-63h-78q-97 0 -112 -39.5t-15 -338.5v-541q0 -294 14 -336 t113 -42h78v-63q-629 7 -1099 7q-455 0 -1079 -7z" />
<glyph unicode="&#x429;" horiz-adv-x="2267" d="M45 -7v63h74q92 0 111.5 36.5t19.5 295.5v602q0 277 -15.5 320t-127.5 43h-62v63q210 -8 329 -8q132 0 257 8v-63h-68q-83 0 -104 -34.5t-21 -328.5v-602q0 -149 8 -293q131 -8 327 -8q157 0 252 8l8 158q4 63 4 167v550q0 326 -26.5 354.5t-109.5 28.5h-55v63 q149 -7 290 -7q148 0 268 7v-63h-54q-84 0 -104.5 -36t-20.5 -327v-602q0 -152 8 -293q132 -8 305 -8q190 0 279 8l9 158q4 63 4 167v550q0 326 -26.5 354.5t-109.5 28.5h-69v63q146 -7 308 -7q168 0 288 7v-63h-76q-96 0 -111.5 -40t-15.5 -338v-553q0 -274 8.5 -320 t118.5 -46h120q-42 -209 -44 -413h-76q-2 133 -22 282q-77 47 -179 61.5t-426 14.5q-768 0 -1473 -8z" />
<glyph unicode="&#x42a;" horiz-adv-x="1409" d="M33 1416l525 -8q137 0 268 8v-63h-43q-113 0 -132 -30t-19 -302v-197h204q534 0 534 -363q0 -199 -166 -333t-399 -134q-27 0 -80 2q-99 4 -158 4q-60 0 -134 -4q-58 -3 -82 -3v45q62 30 74 47t16 144t4 179v613q0 135 -12 304h-47q-227 0 -243 -17t-23 -84l-14 -134h-63 q2 68 2 119q0 78 -12 207zM632 387q0 -191 5 -293q80 -14 150 -14q177 0 274.5 95t97.5 256q0 135 -77.5 224.5t-327.5 89.5q-62 0 -122 -3v-355z" />
<glyph unicode="&#x42b;" horiz-adv-x="1860" d="M57 1353v63q119 -7 272 -7q178 0 302 7v-63h-43q-113 0 -131.5 -30.5t-18.5 -301.5v-197h204q533 0 533 -364q0 -199 -166 -332.5t-399 -133.5q-26 0 -79 2q-100 4 -158 4q-60 0 -134 -4q-58 -3 -83 -3v45l30 14q44 22 54 59.5t10 296.5v613q0 257 -18.5 294.5 t-112.5 37.5h-62zM438 387q0 -230 4 -293q80 -14 151 -14q177 0 274 95t97 255q0 79 -29 151.5t-107.5 118t-267.5 45.5q-62 0 -122 -3v-355zM1231 -7v63h63q93 0 111.5 45t18.5 431v339q0 400 -16 441t-96 41h-81v63q166 -7 328 -7q135 0 245 7v-63h-77q-71 0 -89 -17 t-21 -86q-5 -107 -5 -381v-345q0 -389 17 -428.5t109 -39.5h66v-63q-123 7 -268 7q-169 0 -305 -7z" />
<glyph unicode="&#x42c;" horiz-adv-x="1214" d="M57 1353v63q119 -7 272 -7q178 0 302 7v-63h-43q-113 0 -131.5 -30.5t-18.5 -301.5v-197h204q533 0 533 -364q0 -199 -166 -332.5t-399 -133.5q-26 0 -79 2q-100 4 -158 4q-60 0 -134 -4q-58 -3 -83 -3v45l30 14q44 22 54 59.5t10 296.5v613q0 257 -18.5 294.5 t-112.5 37.5h-62zM438 387q0 -230 4 -293q80 -14 151 -14q177 0 274 95t97 255q0 79 -29 151.5t-107.5 118t-267.5 45.5q-62 0 -122 -3v-355z" />
<glyph unicode="&#x42d;" horiz-adv-x="1434" d="M55 183q21 -47 39 -93q228 -117 474 -117q364 0 591.5 203.5t227.5 532.5q0 319 -221 523t-619 204q-143 0 -330 -46q-103 -25 -153 -33q45 -100 52 -302h67l8 178q173 117 384 117q271 0 430.5 -157.5t167.5 -397.5q-154 -11 -258 -11q-41 0 -210 7q-67 3 -87 3 q-21 0 -145 -8q-7 -107 -38 -191l57 -5l54 106q81 10 232 10q230 0 395 -10q-14 -274 -199 -447.5t-467 -173.5q-259 0 -431 128z" />
<glyph unicode="&#x42e;" horiz-adv-x="2318" d="M45 -7v63h62q110 0 126.5 41t16.5 322v602q0 251 -17.5 291.5t-113.5 40.5h-74v63q155 -7 284 -7q177 0 302 7v-63h-43q-118 0 -134 -33.5t-16 -298.5v-227q232 -10 233 -10q29 0 88 5q27 300 239.5 473.5t537.5 173.5q338 0 536 -185.5t198 -492.5q0 -339 -229 -562 t-573 -223q-309 0 -504.5 185.5t-209.5 542.5q-74 5 -77 5q-12 0 -73 -3l-166 -2v-282q0 -72 5 -169l5 -110q1 -57 36.5 -70.5t78.5 -13.5h68v-63q-120 7 -252 7q-126 0 -334 -7zM958 772q0 -300 154 -506.5t428 -206.5q242 0 381 166.5t139 459.5q0 306 -151.5 485.5 t-427.5 179.5q-245 0 -384 -155t-139 -423z" />
<glyph unicode="&#x42f;" horiz-adv-x="1368" d="M14 -7q83 7 145 7q57 0 120 -7l354 478q99 132 212 258l-10 34q-58 -5 -86 -5q-167 0 -261.5 86t-94.5 230q0 129 80 201.5t231 72.5q105 0 211 -39q12 -159 12 -340v-483q0 -353 -17 -391.5t-110 -38.5h-78v-63q166 7 275 7q86 0 311 -7v63h-75q-86 0 -102 37.5 t-16 394.5v481q0 310 18.5 347t120.5 37h54v64q-186 -8 -284 -8q-66 0 -190 5q-144 5 -207 5q-173 0 -262.5 -36.5t-136 -105.5t-46.5 -165q0 -141 101.5 -249t294.5 -148q-98 -141 -243 -328l-192 -249q-51 -64 -68 -73t-35 -9h-26v-63z" />
<glyph unicode="&#x430;" d="M68 207q0 101 48.5 176.5t138 111.5t415.5 94q-2 127 -56 190q-68 79 -194 79q-48 0 -90 -12t-78 -36q-29 -71 -53 -136l-56 15l1 67l-1 69l109 62q74 42 129.5 58t118.5 16q138 0 222.5 -62t101.5 -158q12 -72 15 -357q2 -269 12 -297t50 -28h78v-66q-114 7 -159 7 q-56 0 -150 -7l1 89q0 43 -1 87l-207 -158q-28 -21 -55 -29.5t-75 -8.5q-129 0 -197 63.5t-68 170.5zM242 255q0 -74 43 -118.5t111 -44.5q75 0 143.5 42t130.5 125l-2 222l2 49q-278 -60 -353 -112.5t-75 -162.5z" />
<glyph unicode="&#x431;" horiz-adv-x="1153" d="M103 615q0 158 22 348.5t67 277.5t130 136.5t201 49.5q73 0 154 -13q105 -16 158 -16q109 0 154 91h57q-8 -131 -108 -197.5t-217 -66.5q-44 0 -128 10q-66 8 -118 8q-105 0 -181.5 -77t-96.5 -230.5t-20 -187.5q0 -31 6 -84q125 299 441 299q178 0 318 -115t140 -349 q0 -238 -154 -382t-368 -144q-208 0 -332.5 140.5t-124.5 501.5zM295 532q0 -187 84.5 -336t243.5 -149q121 0 195.5 93t74.5 277q0 212 -84.5 343t-236.5 131q-126 0 -201.5 -89t-75.5 -270z" />
<glyph unicode="&#x432;" horiz-adv-x="1003" d="M34 883v58q64 -8 109 -8l384 8q171 0 264.5 -47t93.5 -142q0 -166 -294 -226q355 -20 355 -229q0 -141 -140.5 -221t-335.5 -80q-34 0 -112 2q-72 2 -149 2q-71 0 -138 -7v45l41 14q43 16 52 49.5t9 342.5q0 360 -10 399.5t-89 39.5h-40zM343 242q0 -164 4 -182 q40 -6 73 -6q141 0 232 56.5t91 163.5q0 75 -32 118.5t-117.5 69t-171.5 25.5q-8 0 -79 -3v-242zM343 546q50 -2 72 -2q129 0 202.5 45.5t73.5 131.5q0 160 -225 160q-29 0 -113 -10q-10 -74 -10 -215v-110z" />
<glyph unicode="&#x433;" horiz-adv-x="897" d="M34 -7v58h72q77 0 88 37t11 363q0 353 -10 392.5t-89 39.5h-72v58q134 -6 233 -6h299l166 2q93 0 165 -9q-24 -88 -31 -260h-53q-1 114 -7 157q-109 35 -248 35q-66 0 -174 -11q-9 -100 -9 -130l1 -68v-400q0 -134 4 -154.5t31 -33t76 -12.5h70v-58q-158 7 -290 7 q-103 0 -233 -7z" />
<glyph unicode="&#x434;" horiz-adv-x="1163" d="M-21 -293q18 136 33 343q142 44 195.5 180.5t53.5 481.5q0 101 -11 136t-86 35h-73v59q150 -8 254 -8h458q82 0 298 8v-59h-73q-90 0 -94.5 -53t-4.5 -362q0 -332 4.5 -361t28.5 -43t188 -14q-41 -86 -49 -343h-73v46q0 78 -10 203q-100 44 -318 44h-225q-268 0 -371 -32 l-62 -261h-63zM158 62l333 -3q155 0 260 3q12 149 12 438q0 13 -5 172q-4 147 -4 148l1 49q-52 7 -268 7l-142 -7v-78q0 -261 -14 -388t-61 -213.5t-112 -127.5z" />
<glyph unicode="&#x435;" horiz-adv-x="981" d="M57 450q0 168 70 291q46 81 170 150t241 69q177 0 280.5 -104t103.5 -291l-2 -59q-66 -16 -126 -21q-107 -8 -297 -8h-250q5 -197 101 -299t252 -102q70 0 139 23t137 69l17 -15l-32 -84q-83 -48 -171 -72t-181 -24q-203 0 -327.5 128.5t-124.5 348.5zM250 552 q155 -7 342 -7q75 0 145 7v56q0 88 -35 167q-22 49 -77 81.5t-127 32.5q-112 0 -179 -82t-69 -255z" />
<glyph unicode="&#x436;" horiz-adv-x="1511" d="M10 -7v59q47 6 100.5 51t189.5 221q143 186 204 252q-213 195 -289.5 250t-116.5 55h-32v59h189q30 -29 127 -135q144 -156 273 -269h20v127q0 156 -13.5 187t-85.5 31h-72v59q126 -6 251 -6q128 0 251 6v-59h-72q-71 0 -84.5 -30.5t-13.5 -187.5v-127h19q104 82 274 269 q96 105 126 135h190v-59h-33q-35 0 -116 -57.5t-290 -247.5q84 -93 207 -252q141 -183 190.5 -224.5t96.5 -47.5v-59q-1 0 -42 3q-55 4 -77 4q-38 0 -106 -7q-27 34 -74 99q-251 351 -327 414h-38v-140q0 -231 9 -273t96 -42h59v-58l-54 1q-163 6 -190 6q-123 -4 -245 -7v58 h58q87 0 96.5 41t9.5 274v140h-38q-97 -96 -329 -421q-45 -63 -68 -92q-69 7 -106 7q-20 0 -124 -7z" />
<glyph unicode="&#x437;" horiz-adv-x="840" d="M25 141l19 14q173 -111 332 -111q116 0 173.5 59t57.5 161q0 109 -71 159.5t-228 50.5h-46v62h33q260 0 260 185q0 77 -52.5 121.5t-147.5 44.5q-206 0 -220 -221h-52v32q0 159 -4 190q130 76 304 76q164 0 255.5 -59t91.5 -155q0 -83 -77 -145t-211 -91q352 0 352 -233 q0 -132 -107.5 -220t-292.5 -88q-191 0 -336 87z" />
<glyph unicode="&#x438;" horiz-adv-x="1290" d="M35 883v58q132 -7 233 -7q108 0 277 7v-58h-71q-30 0 -58.5 -10t-34 -31t-5.5 -161v-430q0 -64 -7 -113q36 33 184 257l147 222q41 62 206 324q85 -7 138 -7q30 0 212 7v-58h-71q-90 0 -94.5 -53.5t-4.5 -361.5l2 -237q1 -120 4 -136t22.5 -30t70.5 -14h71v-58 q-160 7 -277 7q-102 0 -233 -7v58h72q66 0 82 25t16 164v441q0 101 15 155q-36 -55 -71 -104q-49 -69 -84 -122l-223 -342q-138 -212 -206 -282q-32 -4 -153 -26q12 223 12 428q0 415 -9.5 455t-89.5 40h-72z" />
<glyph unicode="&#x439;" horiz-adv-x="1290" d="M35 883v58q132 -7 233 -7q108 0 277 7v-58h-71q-30 0 -58.5 -10t-34 -31t-5.5 -161v-430q0 -64 -7 -113q36 33 184 257l147 222q41 62 206 324q85 -7 138 -7q30 0 212 7v-58h-71q-90 0 -94.5 -53.5t-4.5 -361.5l2 -237q1 -120 4 -136t22.5 -30t70.5 -14h71v-58 q-160 7 -277 7q-102 0 -233 -7v58h72q66 0 82 25t16 164v441q0 101 15 155q-36 -55 -71 -104q-49 -69 -84 -122l-223 -342q-138 -212 -206 -282q-32 -4 -153 -26q12 223 12 428q0 415 -9.5 455t-89.5 40h-72zM421 1180q90 53 140 94q163 -89 392 -105l5 -31l-65 -31l-93 -2 q-143 0 -371 46z" />
<glyph unicode="&#x43a;" horiz-adv-x="1110" d="M35 882v58q129 -6 233 -6q156 0 279 6v-58h-76q-33 0 -61 -10.5t-32 -32.5t-4 -184v-105l12 -7q132 96 305 262l145 135h201v-58h-36q-40 0 -129.5 -58t-320.5 -248q157 -144 401 -428q81 -95 148 -96v-59q-6 0 -40 2q-72 5 -86 5q-24 0 -120 -7q-271 341 -468 501h-12 v-128q0 -251 16 -283t101 -32h60v-58q-2 0 -54 2q-142 5 -189 5q-10 0 -266 -7v58h58q87 0 96.5 41t9.5 274v297q0 158 -13.5 188.5t-85.5 30.5h-72z" />
<glyph unicode="&#x43b;" horiz-adv-x="1151" d="M-3 -7l3 39q3 29 3 37q0 5 -3 30q-2 15 -3 44l23 11q41 -53 100 -53q91 0 131 113t40 494q0 108 -10 141.5t-87 33.5h-72v58q151 -7 252 -7h466q100 0 277 7v-58h-71q-90 0 -94.5 -53t-4.5 -362l1 -236q1 -121 4 -137t23 -30t71 -14h71v-58q-160 7 -277 7q-103 0 -233 -7 v58h72q71 0 84.5 31.5t13.5 259.5v334l-1 145l1 53q-81 10 -238 10q-60 0 -161 -6q0 -446 -27 -592.5t-112.5 -226.5t-163.5 -80q-32 0 -78 14z" />
<glyph unicode="&#x43c;" horiz-adv-x="1421" d="M34 -7v58h72q77 0 88 37t11 363q0 353 -10 392.5t-89 39.5h-72v56l54 -2q105 -5 109 -5q1 0 83 4q83 5 84 5q3 0 31 -2q88 -226 164 -401l148 -340l171 367q99 214 123 274l41 100q67 -5 119 -5q40 0 226 5v-56h-71q-90 0 -94.5 -53t-4.5 -372l1 -176q1 -176 5.5 -192.5 t30 -27.5t62.5 -11h71v-58q-159 7 -277 7q-102 0 -232 -7v58h71q68 0 84 28t16 242v455l-171 -357q-101 -209 -188 -432h-66q-38 106 -92 226l-63 143l-187 443v-467l1 -151q1 -77 5 -90.5t25 -26.5t66 -13h71v-58q-3 0 -56 2q-121 6 -169 6q-37 0 -191 -8z" />
<glyph unicode="&#x43d;" horiz-adv-x="1290" d="M35 -7v58h72q77 0 88 37t11 363q0 353 -10 392.5t-89 39.5h-72v58q132 -7 233 -7q108 0 277 7v-58h-71q-32 0 -60 -10.5t-33 -29.5t-5 -160l-1 -129q136 -11 344 -11q129 0 198 11q-2 243 -9 286t-90 43h-72v58q132 -7 233 -7q108 0 277 7v-58h-71q-90 0 -94.5 -53.5 t-4.5 -361.5l2 -237q1 -120 4 -136t22.5 -30t70.5 -14h71v-58q-160 7 -277 7q-102 0 -233 -7v58h72q77 0 87 35.5t10 147.5q0 88 2 242l-270 4l-272 -4l2 -316q0 -63 6.5 -76.5t31.5 -23t59 -9.5h71v-58q-160 7 -277 7q-102 0 -233 -7z" />
<glyph unicode="&#x43e;" horiz-adv-x="1118" d="M72 473q0 138 64 249.5t179.5 174.5t262.5 63q213 0 341 -126t128 -336q0 -248 -167 -394q-149 -131 -357 -131q-200 0 -325.5 134.5t-125.5 365.5zM260 544q0 -206 84.5 -352.5t243.5 -146.5q121 0 195.5 92t74.5 279q0 151 -44 261.5t-116 161t-161 50.5 q-79 0 -142.5 -40t-93.5 -107q-41 -91 -41 -198z" />
<glyph unicode="&#x43f;" horiz-adv-x="1255" d="M34 -7v58h72q77 0 88 37t11 363q0 353 -10 392.5t-89 39.5h-72v58q125 -7 284 -7h637q95 0 266 7v-58h-71q-91 0 -95 -53.5t-4 -371.5l1 -184q1 -171 5.5 -186t30 -26t62.5 -11h71v-58q-160 7 -277 7q-103 0 -233 -7v58h72q79 0 89 39.5t10 265.5v280q0 11 -2 52 q-5 83 -5 177q-66 7 -173 7h-157q-87 0 -166 -7q-4 -118 -4 -229v-280q0 -208 2.5 -241t23.5 -48.5t72 -15.5h72v-58q-160 7 -278 7q-102 0 -233 -7z" />
<glyph unicode="&#x440;" horiz-adv-x="1231" d="M41 -494h73q77 0 91 33t14 352v614q0 160 -8 247q-4 42 -19.5 55.5t-72.5 13.5h-78v62q139 15 273 57l61 24q16 0 16 -28l-3 -106l-1 -71l140 124q53 47 90 59q59 19 138 19q178 0 288 -110t110 -284q0 -87 -25 -171.5t-61 -138t-81 -89.5q-15 -12 -122 -79l-40 -29 q-76 -53 -122.5 -69.5t-106.5 -16.5q-47 0 -99 13.5t-109 39.5v-141q0 -217 6 -306q3 -39 25 -56.5t93 -17.5h54v-56q-189 6 -277 6q-97 0 -247 -6v56zM387 209q64 -72 128 -102t138 -30q158 0 242 119t84 283q0 110 -38.5 188.5t-112.5 123t-159 44.5q-60 0 -117.5 -24 t-100.5 -66.5t-55 -78.5q-9 -27 -9 -143v-314z" />
<glyph unicode="&#x441;" horiz-adv-x="909" d="M45 443q0 129 43 224.5t120.5 149.5t193.5 106q82 37 183 37q77 0 132.5 -12.5t119.5 -44.5q-25 -132 -27 -264h-63v50q0 64 -18.5 90.5t-84.5 52.5t-144 26q-135 0 -208 -82.5t-73 -246.5q0 -211 108 -338q97 -115 250 -115q60 0 118 15t115 44l27 -24l-41 -64 q-68 -37 -140 -55.5t-147 -18.5q-147 0 -249.5 56t-158.5 162t-56 252z" />
<glyph unicode="&#x442;" horiz-adv-x="983" d="M20 943q203 -9 256 -9h431q74 0 256 9q-10 -159 -10 -198q0 -33 2 -84h-70q-11 171 -36.5 186t-262.5 15q-6 -62 -6 -118v-88l-3 -172v-233q0 -131 4 -152t25 -34.5t69 -13.5h71v-58q-160 7 -277 7q-102 0 -233 -7v58h72q66 0 82.5 25.5t16.5 157.5v250q0 263 -10 378 h-51q-187 0 -212 -15.5t-36 -185.5h-70q2 51 2 84q0 39 -10 198z" />
<glyph unicode="&#x443;" horiz-adv-x="1139" d="M12 884v58q104 -7 184 -7q62 0 289 7v-58h-74q-38 0 -55.5 -13t-17.5 -32q0 -16 19 -69q101 -278 238 -596q132 291 230 561q29 79 29 96q0 32 -68 42l-74 11v58q118 -7 210 -7q87 0 175 7v-58h-35q-23 0 -47 -13.5t-39 -37.5q-32 -51 -185 -389q-42 -93 -214 -504 q-152 -346 -172 -380q-39 -66 -100 -101.5t-132 -35.5q-29 0 -59.5 9t-61.5 26l47 156h23q27 -32 54 -48t55 -16q62 0 113 60t157 334q-44 116 -176 443l-93 229l-75 175q-35 93 -105 93h-40z" />
<glyph unicode="&#x444;" horiz-adv-x="1708" d="M77 396q0 211 171 389t336 178q103 0 192 -69q-2 392 -20 411.5t-82 19.5h-76v62q204 23 306 75q10 5 17 5q16 0 16 -26q0 -33 -4 -133q-1 -21 -1 -48v-411l129 69q84 45 182 45q189 0 289 -122t100 -301q0 -211 -171.5 -389t-332.5 -178q-106 0 -196 69v-318 q0 -127 12 -174t117 -47h50v-53q-192 3 -277 3q-93 0 -236 -3v53h76q80 0 91 39.5t11 314.5v230l-133 -72q-78 -42 -173 -42q-202 0 -297.5 127.5t-95.5 295.5zM260 478q0 -201 81.5 -301.5t219.5 -100.5q95 0 155 46.5t60 131.5v502q-101 105 -237 105q-279 0 -279 -383z M932 181q101 -105 238 -105q278 0 278 384q0 192 -78 296.5t-222 104.5q-95 0 -155.5 -46t-60.5 -132v-502z" />
<glyph unicode="&#x445;" horiz-adv-x="1057" d="M51 -7v61q51 0 69 9t98 98q116 129 234 278q-186 277 -240.5 325t-116.5 48q-17 0 -44 -3v54l191 93q63 -25 104 -72q66 -74 213 -315q130 173 265 371q39 -6 65 -6q21 0 88 6v-59q-54 -3 -87 -32q-54 -47 -287 -337q135 -199 226 -318q62 -81 100 -102q24 -13 76 -13 v-58q-92 -21 -200 -53q-51 37 -86 81q-22 28 -221 327q-94 -115 -144.5 -186t-128.5 -197q-42 7 -76 7q-36 0 -98 -7z" />
<glyph unicode="&#x446;" horiz-adv-x="1266" d="M35 -7v58h72q78 0 88.5 38.5t10.5 393.5q0 323 -10.5 361.5t-88.5 38.5h-72v58q132 -7 234 -7q108 0 277 7v-58h-72q-48 0 -70.5 -14.5t-25 -44.5t-2.5 -246v-280q0 -112 4 -229q77 -7 166 -7h157q105 0 173 7q0 36 1 68l6 161v280q0 226 -10.5 265.5t-88.5 39.5h-72v58 q131 -7 233 -7q108 0 277 7v-58h-71q-90 0 -94.5 -53.5t-4.5 -353.5l1 -203q1 -171 5.5 -185.5t30 -25.5t62.5 -11h104q-40 -91 -48 -344h-70v46q0 85 -10 195q-76 52 -374 52h-434q-159 0 -284 -7z" />
<glyph unicode="&#x447;" horiz-adv-x="1165" d="M9 883v58q132 -7 233 -7q108 0 277 7v-58h-71q-67 0 -82.5 -22t-15.5 -154v-88q0 -82 11 -113.5t53.5 -56.5t115.5 -25q138 0 262 107q-2 154 -2 169q0 114 -10 148.5t-87 34.5h-72v58q131 -7 233 -7q107 0 277 7v-58h-71q-90 0 -94.5 -53.5t-4.5 -361.5l1 -237 q1 -120 4 -136t23 -30t71 -14h71v-58q-160 7 -277 7q-103 0 -233 -7v58h72q76 0 86.5 35t10.5 148q0 79 2 209q-178 -124 -331 -124q-95 0 -161.5 34.5t-93.5 92.5t-27 173v101q0 116 -17 139.5t-81 23.5h-72z" />
<glyph unicode="&#x448;" horiz-adv-x="1800" d="M34 -7v58h72q77 0 88 37t11 363q0 353 -10 392.5t-89 39.5h-72v58q132 -7 233 -7q108 0 277 7v-58h-71q-49 0 -69 -13.5t-23.5 -29.5t-5 -162t-1.5 -217l3 -393q56 -8 180 -8h74q128 0 180 8l3 407q0 347 -8.5 377.5t-88.5 30.5h-71v58q131 -7 233 -7q107 0 277 7v-58 h-72q-87 0 -93.5 -40.5t-6.5 -364.5l4 -410q61 -8 179 -8h77q122 0 175 8l4 381q0 348 -6 391t-89 43h-73v58q132 -7 233 -7q108 0 277 7v-58h-70q-91 0 -95.5 -53.5t-4.5 -371.5l2 -184q1 -171 5.5 -186t30 -26t62.5 -11h70v-58q-159 7 -277 7h-1221q-102 0 -233 -7z" />
<glyph unicode="&#x449;" horiz-adv-x="1810" d="M35 -7v58h72q77 0 88 37t11 363q0 353 -10 392.5t-89 39.5h-72v58q132 -7 233 -7q108 0 277 7v-58h-71q-49 0 -69 -13.5t-23.5 -29.5t-5 -162t-1.5 -217l3 -393q56 -8 180 -8h74q128 0 180 8l3 407q0 347 -8.5 377.5t-88.5 30.5h-71v58q131 -7 233 -7q107 0 277 7v-58 h-72q-87 0 -93.5 -40.5t-6.5 -364.5l4 -410q61 -8 179 -8h77q122 0 175 8l4 381q0 348 -6 391t-89 43h-73v58q132 -7 233 -7q108 0 277 7v-58h-70q-91 0 -95.5 -53.5t-4.5 -371.5l2 -184q1 -171 5.5 -186t30 -26t62.5 -11h104q-40 -90 -48 -344h-70v46q0 86 -11 195 q-75 52 -373 52h-1030q-102 0 -233 -7z" />
<glyph unicode="&#x44a;" horiz-adv-x="1163" d="M18 942q201 -8 256 -8h145q106 0 277 8v-59h-71q-87 0 -93.5 -49.5t-6.5 -248.5v-41q70 2 158 2q188 0 306 -61.5t118 -189.5q0 -141 -141.5 -218t-347.5 -77h-225l-44 -3q-54 -4 -83 -4v45q75 31 83 63t8 421v338l-74 3q-141 0 -158.5 -24t-28.5 -178h-70q2 51 2 84 q0 39 -10 197zM525 254q0 -68 1 -91q3 -71 3 -98q40 -5 80 -5q315 0 315 216q0 106 -80.5 156.5t-212.5 50.5l-106 -2v-227z" />
<glyph unicode="&#x44b;" horiz-adv-x="1507" d="M34 883v58q132 -7 233 -7q108 0 277 7v-58h-71q-87 0 -93.5 -50t-6.5 -248v-41q105 2 146 2q207 0 321.5 -62.5t114.5 -187.5q0 -142 -141.5 -219t-347.5 -77h-225l-44 -3q-54 -4 -83 -4v45q72 28 81.5 59t9.5 353q0 355 -10 394t-89 39h-72zM373 254q0 -111 5 -187 q49 -7 80 -7q314 0 314 217q0 105 -80 155.5t-213 50.5l-106 -2v-227zM963 -7v58h72q79 0 89 39t10 386q0 328 -10 367.5t-89 39.5h-72v58q132 -7 233 -7q108 0 277 7v-58h-71q-90 0 -94.5 -53t-4.5 -372l1 -176q1 -176 5.5 -192.5t30 -27.5t62.5 -11h71v-58q-160 7 -277 7 q-102 0 -233 -7z" />
<glyph unicode="&#x44c;" horiz-adv-x="1012" d="M34 883v58q132 -7 233 -7q108 0 277 7v-58h-71q-87 0 -93.5 -50t-6.5 -248v-41q105 2 146 2q207 0 321.5 -62.5t114.5 -187.5q0 -142 -141.5 -219t-347.5 -77h-225l-44 -3q-54 -4 -83 -4v45q71 30 81 58.5t10 354.5q0 353 -10 392.5t-89 39.5h-72zM373 254q0 -93 4 -189 q38 -5 70 -5q325 0 325 217q0 105 -80 155.5t-213 50.5l-106 -2v-227z" />
<glyph unicode="&#x44d;" horiz-adv-x="965" d="M56 111l27 24q153 -81 292 -81q138 0 239.5 103.5t101.5 290.5q-22 0 -68 3q-66 4 -156 4q-81 0 -112.5 -6.5t-64.5 -26.5q-3 -2 -11 -6l-26 32l76 72h294q7 0 28 2q13 1 38 2q-14 150 -97 257.5t-237 107.5q-215 0 -229 -223h-55l3 120q0 15 -3 102q159 75 318 75 q235 0 364 -123t129 -356q0 -235 -138 -373t-378 -138q-164 0 -295 74z" />
<glyph unicode="&#x44e;" horiz-adv-x="1638" d="M35 -7v58h72q77 0 88 37t11 363q0 353 -10 392.5t-89 39.5h-72v58q132 -7 233 -7q108 0 277 7v-58h-71q-32 0 -60 -10.5t-33 -29.5t-5 -160l-1 -129q87 -7 120 -7q43 0 103 7q29 184 164.5 296.5t340.5 112.5q200 0 332 -123t132 -340q0 -239 -154 -383t-368 -144 q-202 0 -327.5 134.5t-125.5 367.5h-30q-44 2 -56 2l-131 -2l2 -315q0 -64 6.5 -77t31.5 -22.5t59 -9.5h71v-58q-160 7 -277 7q-102 0 -233 -7zM780 530q0 -188 84.5 -336.5t243.5 -148.5q121 0 195.5 93t74.5 277q0 213 -85 343.5t-236 130.5q-125 0 -201 -90t-76 -269z " />
<glyph unicode="&#x44f;" horiz-adv-x="1079" d="M10 -7v59q52 1 119 72q185 194 348 346q-195 10 -272.5 64.5t-77.5 163.5q0 108 83.5 179t243.5 71q76 0 186 -7q119 -8 174 -8q36 0 231 8v-58h-71q-49 0 -69 -13.5t-23.5 -29.5t-5 -154t-1.5 -228l1 -184q1 -171 5.5 -186t30 -25.5t62.5 -10.5h71v-59q-3 0 -56 2 q-127 6 -167 6l-272 -8v59h57q70 0 86.5 34.5t16.5 265.5v114h-26q-160 -147 -434 -473q-67 7 -110 7q-27 0 -130 -7zM329 699q0 -182 250 -182q76 0 131 16v109q0 152 -6 236q-92 14 -156 14q-90 0 -154.5 -45.5t-64.5 -147.5z" />
<glyph unicode="&#x451;" horiz-adv-x="981" d="M57 450q0 168 70 291q46 81 170 150t241 69q177 0 280.5 -104t103.5 -291l-2 -59q-66 -16 -126 -21q-107 -8 -297 -8h-250q5 -197 101 -299t252 -102q70 0 139 23t137 69l17 -15l-32 -84q-83 -48 -171 -72t-181 -24q-203 0 -327.5 128.5t-124.5 348.5zM204 1153 q0 45 32 77t78 32q45 0 77 -32t32 -77q0 -46 -32 -78t-77 -32q-46 0 -78 32t-32 78zM250 552q155 -7 342 -7q75 0 145 7v56q0 88 -35 167q-22 49 -77 81.5t-127 32.5q-112 0 -179 -82t-69 -255zM638 1153q0 45 32 77t78 32q45 0 77 -32t32 -77q0 -46 -32 -78t-77 -32 t-77.5 32t-32.5 78z" />
<glyph unicode="&#x452;" horiz-adv-x="1163" d="M31 -7v58l63 8q75 9 87 34.5t12 267.5v747q-75 -7 -150 -11l-12 11q6 19 6 33q0 16 -6 44l12 11q78 -7 150 -11q-3 132 -12 152t-81 20h-69v59q197 19 312 68q11 5 18 5q16 0 16 -20q0 -13 -3 -42q-2 -10 -11 -242h191q178 0 350 11l12 -11q-6 -29 -6 -43q0 -15 6 -34 l-12 -11q-206 11 -350 11h-191v-350l133 124q59 55 103.5 68t98.5 13q179 0 286.5 -114t107.5 -320q0 -245 -128 -413.5t-286 -233.5l-70 9v36q129 54 225.5 182.5t96.5 328.5q0 175 -76 285.5t-224 110.5q-117 0 -192 -76t-75 -236v-169q0 -121 1 -143q3 -74 3 -76 q0 -44 16 -57t71 -18l87 -8v-58q-148 7 -254 7q-105 0 -256 -7z" />
<glyph unicode="&#x453;" horiz-adv-x="897" d="M34 -7v58h72q77 0 88 37t11 363q0 353 -10 392.5t-89 39.5h-72v58q134 -6 233 -6h299l166 2q93 0 165 -9q-24 -88 -31 -260h-53q-1 114 -7 157q-109 35 -248 35q-66 0 -174 -11q-9 -100 -9 -130l1 -68v-400q0 -134 4 -154.5t31 -33t76 -12.5h70v-58q-158 7 -290 7 q-103 0 -233 -7zM281 1038l296 283q37 36 53 44.5t36 8.5q29 0 47.5 -17.5t18.5 -43.5q0 -24 -19.5 -46.5t-94.5 -67.5l-269 -161h-68z" />
<glyph unicode="&#x454;" horiz-adv-x="922" d="M57 443q0 118 42.5 224.5t150.5 170t177.5 94.5t166.5 31q148 0 255 -60q-26 -133 -27 -264h-63v50q0 63 -21 93.5t-82.5 53t-138.5 22.5q-149 0 -217.5 -90t-68.5 -218l1 -27l39 -1q15 -2 28 -2h294l76 -72l-26 -32l-11 6q-55 33 -175 33q-96 0 -220 -7 q19 -171 115 -271.5t237 -100.5q119 0 233 59l27 -24l-41 -64q-131 -74 -285 -74q-232 0 -349 132t-117 338z" />
<glyph unicode="&#x455;" horiz-adv-x="868" d="M72 33l3 14q4 15 7 53q9 97 9 151l-1 48h62v-65q0 -78 14 -97q26 -32 101.5 -62t155.5 -30q103 0 168 55.5t65 132.5q0 61 -38 98t-145 59q-199 40 -263 70t-96 80t-32 121q0 133 96.5 216t273.5 83q140 0 279 -56q-8 -68 -13 -228h-59q-2 88 -19 116q-23 37 -84 67 t-130 30q-91 0 -145.5 -46.5t-54.5 -116.5q0 -67 43 -101q43 -35 238 -74q144 -29 190 -54t74 -76t28 -117q0 -135 -115.5 -233t-308.5 -98q-123 0 -276 39q-27 7 -27 21z" />
<glyph unicode="&#x456;" horiz-adv-x="596" d="M51 -7v58l86 9q50 4 61.5 18.5t14.5 96.5q5 127 5 350q0 155 -5 239q-2 31 -17.5 44t-69.5 13h-75v59q122 18 179.5 33t148.5 51l24 -15q-7 -75 -9 -165q-7 -292 -7 -431q0 -130 9 -222q4 -36 19 -50t72 -21l68 -9v-58q-146 7 -266 7q-118 0 -238 -7zM186 1293 q0 47 33 80.5t80 33.5q46 0 79 -33.5t33 -80.5t-33 -80t-79 -33q-47 0 -80 33t-33 80z" />
<glyph unicode="&#x457;" horiz-adv-x="588" d="M-33 1153q0 45 32 77t78 32q45 0 77 -32t32 -77q0 -46 -32 -78t-77 -32q-46 0 -78 32t-32 78zM48 -7v58l86 9q50 4 59 16q14 17 17 99q5 127 5 350q0 155 -5 239q-2 31 -17.5 44t-69.5 13h-75v59q122 18 179.5 33t148.5 51l24 -15q-7 -75 -9 -165q-7 -292 -7 -431 q0 -130 9 -222q4 -36 19 -50t72 -21l68 -9v-58q-146 7 -266 7q-118 0 -238 -7zM401 1153q0 45 32 77t78 32q45 0 77 -32t32 -77q0 -46 -32 -78t-77 -32t-77.5 32t-32.5 78z" />
<glyph unicode="&#x458;" horiz-adv-x="479" d="M-86 -506q33 -6 51 -6q48 0 79 22q47 35 73.5 106t34 320t7.5 534q0 300 -11 327.5t-82 27.5h-72v57q139 15 250 52l88 31q16 0 16 -20l-2 -20q-2 -17 -8 -146q-12 -263 -12 -439l2 -257q0 -265 -45.5 -392.5t-135 -197.5t-181.5 -70l-31 1zM123 1293q0 47 33.5 80.5 t80.5 33.5t80 -33.5t33 -80.5t-33 -80t-80 -33t-80.5 33t-33.5 80z" />
<glyph unicode="&#x459;" horiz-adv-x="1552" d="M-3 -7l3 39q3 29 3 37q0 5 -3 30q-2 15 -3 44l23 11q41 -53 100 -53q91 0 131 113t40 494q0 108 -10 141.5t-87 33.5h-72v58q151 -7 252 -7h487q43 0 223 7v-58h-71q-87 0 -93.5 -50t-6.5 -248v-41q105 2 146 2q207 0 321.5 -62.5t114.5 -187.5q0 -142 -141.5 -219 t-347.5 -77h-225l-44 -3q-54 -4 -83 -4v45q74 31 82.5 62.5t8.5 437.5q0 66 -6 340q-78 6 -197 6q-64 0 -164 -6q0 -446 -27 -592.5t-112.5 -226.5t-163.5 -80q-32 0 -78 14zM913 254q0 -168 4 -189q38 -5 70 -5q325 0 325 217q0 94 -72 150t-221 56l-106 -2v-227z" />
<glyph unicode="&#x45a;" horiz-adv-x="1683" d="M35 -7v59h72q77 0 88 36t11 363q0 353 -10 392.5t-89 39.5h-72v58q132 -7 233 -7q108 0 277 7v-58h-71q-32 0 -60 -10.5t-33 -29.5t-5 -160l-1 -129q119 -11 366 -11q72 0 149 11q-2 242 -9 285.5t-90 43.5h-72v58q131 -7 233 -7q108 0 277 7v-58h-71q-74 0 -87.5 -27.5 t-13.5 -270.5v-40l155 1q177 0 295.5 -60.5t118.5 -189.5q0 -144 -143.5 -220t-332.5 -76h-225l-43 -3q-54 -4 -83 -4v45q61 28 73.5 45.5t15 116.5t2.5 276h-61l-218 3q-23 0 -77 -2q-39 -1 -95 -1h-64l2 -254q0 -131 6 -141t30.5 -19.5t60.5 -9.5h71v-59q-160 7 -277 7 q-102 0 -233 -7zM1057 254q0 -102 4 -189q43 -5 73 -5q160 0 234.5 59.5t74.5 156.5q0 106 -80 156.5t-201 50.5l-105 -2v-227z" />
<glyph unicode="&#x45b;" horiz-adv-x="1192" d="M31 -7v58l63 8q75 9 87 34.5t12 267.5v747q-75 -7 -150 -11l-12 11q6 19 6 33q0 16 -6 44l12 11q78 -7 150 -11q-3 132 -12 152t-81 20h-69v59q197 19 312 68q11 5 18 5q16 0 16 -20q0 -13 -3 -42q-1 -9 -11 -242h191q178 0 350 11l12 -11q-6 -29 -6 -43q0 -15 6 -34 l-12 -11q-206 11 -350 11h-191v-338l131 115q46 43 90.5 59t107.5 16q111 0 192.5 -44.5t113 -114t31.5 -236.5l-6 -296q0 -100 8 -158q3 -24 16.5 -36t58.5 -16l76 -8v-58q-97 7 -189 7q-79 0 -157 -7q18 251 18 494q0 163 -20.5 221t-73.5 92t-134 34q-83 0 -151 -39.5 t-94 -91.5q-18 -37 -18 -176v-174q0 -238 11 -263t80 -31l87 -8v-58q-156 7 -251 7q-99 0 -259 -7z" />
<glyph unicode="&#x45c;" horiz-adv-x="1110" d="M35 882v58q129 -6 233 -6q156 0 279 6v-58h-76q-33 0 -61 -10.5t-32 -32.5t-4 -184v-105l12 -7q132 96 305 262l145 135h201v-58h-36q-40 0 -129.5 -58t-320.5 -248q157 -144 401 -428q81 -95 148 -96v-59q-6 0 -40 2q-72 5 -86 5q-24 0 -120 -7q-271 341 -468 501h-12 v-128q0 -251 16 -283t101 -32h60v-58q-2 0 -54 2q-142 5 -189 5q-10 0 -266 -7v58h58q87 0 96.5 41t9.5 274v297q0 158 -13.5 188.5t-85.5 30.5h-72zM391 1038l296 283q37 36 53 44.5t36 8.5q29 0 47.5 -17.5t18.5 -43.5q0 -24 -19.5 -46.5t-94.5 -67.5l-269 -161h-68z" />
<glyph unicode="&#x45e;" horiz-adv-x="1139" d="M12 883v58q104 -7 184 -7q62 0 289 7v-58h-74q-38 0 -55.5 -13t-17.5 -32q0 -16 19 -69q101 -278 238 -596q132 291 230 561q29 79 29 96q0 32 -68 42l-74 11v58q118 -7 210 -7q87 0 175 7v-58h-35q-23 0 -47 -13.5t-39 -37.5q-32 -51 -185 -389q-42 -93 -214 -504 q-152 -346 -172 -380q-39 -66 -100 -101.5t-132 -35.5q-29 0 -59.5 9t-61.5 26l47 156h23q27 -32 54 -48t55 -16q62 0 113 60t157 334q-44 116 -176 443l-93 229l-75 175q-35 93 -105 93h-40zM344 1180q90 53 140 94q163 -89 392 -105l5 -31l-65 -31l-93 -2q-142 0 -371 46z " />
<glyph unicode="&#x45f;" horiz-adv-x="1255" d="M34 -7v58h72q78 0 88.5 38.5t10.5 393.5q0 323 -10.5 361.5t-88.5 38.5h-72v58q132 -7 234 -7q108 0 277 7v-58h-72q-48 0 -70.5 -14.5t-25 -44.5t-2.5 -246v-280q0 -112 4 -229q77 -7 166 -7h157q105 0 173 7q0 36 1 68l6 161v280q0 226 -10.5 265.5t-88.5 39.5h-72v58 q131 -7 233 -7q108 0 277 7v-58h-71q-90 0 -94.5 -53.5t-4.5 -353.5l1 -203q1 -171 5.5 -185.5t30 -25.5t62.5 -11h71v-58q-165 7 -228 7q-241 0 -323 -52q-10 -107 -10 -195v-46h-70v46q0 85 -11 195q-81 52 -324 52q-89 0 -221 -7z" />
<glyph unicode="&#x490;" horiz-adv-x="963" d="M37 -7v62h80q92 0 108.5 37.5t16.5 236.5v754q0 167 -12.5 218.5t-120.5 51.5h-72v63l138 -6q79 -5 153 -5h197q176 0 281 28q22 117 25 194h64q3 -206 34 -302q-121 -10 -177 -10q-46 0 -102 3q-87 6 -119 6q-33 0 -89 -7q-12 -129 -12 -234v-754q0 -205 22 -239.5 t112 -34.5h71v-62q-180 7 -305 7q-123 0 -293 -7z" />
<glyph unicode="&#x491;" horiz-adv-x="760" d="M34 -7v58h72q76 0 87.5 35.5t11.5 334.5q0 395 -11.5 428.5t-87.5 33.5h-72v58q129 -6 233 -6h169q115 0 212 16q5 67 6 157h54q7 -171 31 -259q-111 8 -182 8q-29 0 -174 -8q-7 -78 -7 -198v-400q0 -134 4 -154.5t31 -33t76 -12.5h70v-58q-158 7 -290 7q-103 0 -233 -7z " />
<glyph unicode="&#x2000;" horiz-adv-x="926" />
<glyph unicode="&#x2001;" horiz-adv-x="1853" />
<glyph unicode="&#x2002;" horiz-adv-x="926" />
<glyph unicode="&#x2003;" horiz-adv-x="1853" />
<glyph unicode="&#x2004;" horiz-adv-x="617" />
<glyph unicode="&#x2005;" horiz-adv-x="463" />
<glyph unicode="&#x2006;" horiz-adv-x="308" />
<glyph unicode="&#x2007;" horiz-adv-x="308" />
<glyph unicode="&#x2008;" horiz-adv-x="231" />
<glyph unicode="&#x2009;" horiz-adv-x="370" />
<glyph unicode="&#x200a;" horiz-adv-x="102" />
<glyph unicode="&#x2010;" horiz-adv-x="682" d="M43 413q30 76 51 145q146 -7 243 -7q80 0 294 7l8 -15q-33 -76 -49 -144q-137 9 -252 9q-129 0 -282 -9z" />
<glyph unicode="&#x2011;" horiz-adv-x="682" d="M43 413q30 76 51 145q146 -7 243 -7q80 0 294 7l8 -15q-33 -76 -49 -144q-137 9 -252 9q-129 0 -282 -9z" />
<glyph unicode="&#x2012;" horiz-adv-x="682" d="M43 413q30 76 51 145q146 -7 243 -7q80 0 294 7l8 -15q-33 -76 -49 -144q-137 9 -252 9q-129 0 -282 -9z" />
<glyph unicode="&#x2013;" d="M66 413q30 78 50 145q148 -7 358 -7q279 0 475 7l9 -15q-33 -74 -50 -144q-137 9 -372 9q-305 0 -457 -9z" />
<glyph unicode="&#x2014;" horiz-adv-x="2048" d="M318 413q30 78 50 145q152 -7 518 -7q631 0 834 7l9 -15q-32 -73 -50 -144q-138 9 -538 9q-652 0 -810 -9z" />
<glyph unicode="&#x2018;" horiz-adv-x="569" d="M33 982q66 150 123.5 248.5t139.5 204.5l98 55l30 -25q-86 -135 -120.5 -234.5t-40.5 -215.5q-84 -21 -201 -57z" />
<glyph unicode="&#x2019;" horiz-adv-x="569" d="M33 983q85 135 119.5 234.5t41.5 215.5q94 24 200 57l30 -24q-66 -150 -123 -248t-140 -205l-98 -55z" />
<glyph unicode="&#x201a;" horiz-adv-x="569" d="M33 -256q85 134 119.5 233.5t41.5 216.5q85 21 200 57l30 -24q-65 -149 -122.5 -247t-140.5 -206l-98 -55z" />
<glyph unicode="&#x201c;" d="M59 982q66 150 123.5 248.5t139.5 204.5l98 55l30 -25q-86 -135 -120.5 -234.5t-40.5 -215.5q-84 -21 -201 -57zM462 982q66 150 123 248.5t140 204.5l98 55l30 -25q-85 -134 -119.5 -234t-41.5 -216q-86 -21 -201 -57z" />
<glyph unicode="&#x201d;" d="M59 983q85 134 119.5 234t41.5 216q94 24 200 57l30 -24q-65 -149 -123 -248.5t-140 -204.5l-98 -55zM462 983q85 134 119.5 234t41.5 216q94 24 200 57l30 -24q-66 -151 -123 -249t-140 -204l-98 -55z" />
<glyph unicode="&#x201e;" d="M59 -256q85 134 119.5 234t41.5 216q85 21 200 57l30 -24q-65 -149 -122.5 -247t-140.5 -206l-98 -55zM462 -256q85 135 119.5 234.5t41.5 215.5q83 21 200 57l30 -24q-65 -148 -123 -247.5t-140 -205.5l-98 -55z" />
<glyph unicode="&#x2026;" horiz-adv-x="2048" d="M225 90q0 49 34 83t83 34q48 0 82 -34.5t34 -82.5t-34 -82.5t-82 -34.5q-49 0 -83 34.5t-34 82.5zM907 90q0 49 34 83t83 34q48 0 82 -34.5t34 -82.5t-34 -82.5t-82 -34.5q-49 0 -83 34.5t-34 82.5zM1589 90q0 49 34 83t83 34q48 0 82 -34.5t34 -82.5t-34 -82.5 t-82 -34.5q-49 0 -83 34.5t-34 82.5z" />
<glyph unicode="&#x202f;" horiz-adv-x="370" />
<glyph unicode="&#x2039;" horiz-adv-x="678" d="M134 466v26q138 128 358 352l52 -34q-155 -208 -241 -330q123 -181 241 -329l-52 -35q-191 196 -358 350z" />
<glyph unicode="&#x203a;" horiz-adv-x="678" d="M134 148q148 198 241 331q-120 176 -241 329l51 34q193 -196 359 -350v-26q-151 -139 -359 -352z" />
<glyph unicode="&#x205f;" horiz-adv-x="463" />
<glyph unicode="&#x20ac;" d="M-33 587l5 56l8 11h83q-1 28 -1 62q0 25 2 52h-90l-7 10l5 56l8 11h94q33 239 202 415t392 176q211 0 337 -95l5 -10q-18 -101 -34 -277l-5 -8h-55l-6 8l-8 157q-61 129 -252 129q-149 0 -256.5 -132t-124.5 -363h513l8 -11l-5 -56l-9 -10h-511q-1 -31 -1 -53 q0 -40 1 -61h495l8 -11l-5 -56l-9 -10h-483q12 -220 122 -360.5t282 -140.5q149 0 271 75l15 -22l-29 -77q-128 -79 -306 -79q-505 0 -558 604h-94z" />
<glyph unicode="&#x2122;" horiz-adv-x="2005" d="M61 1185q11 87 13 111.5t2 112.5h697q-5 -46 -5 -93q0 -34 5 -131h-71q-3 85 -17 109t-45.5 34t-161.5 10v-668q0 -50 12.5 -61t79.5 -11l36 1v-65h-380v65q99 0 114.5 10.5t15.5 63.5v665q-117 0 -151 -11t-49.5 -36t-23.5 -106h-71zM908 534v65q79 1 90.5 9.5 t11.5 58.5v626q0 42 -8.5 48.5t-76.5 6.5v61h231l269 -649l279 649h236v-61q-82 0 -91.5 -5.5t-9.5 -43.5v-627q0 -47 12.5 -57.5t88.5 -15.5v-65h-329v65q76 1 91.5 13.5t15.5 64.5v556l-290 -699h-47l-299 717v-586q0 -39 6 -48t20 -13t79 -5v-65h-279z" />
<glyph unicode="&#x25fc;" horiz-adv-x="955" d="M0 0v955h955v-955h-955z" />
</font>
</defs>
</svg>
